<svg xmlns="http://www.w3.org/2000/svg" viewBox="0 0 1160.45 1160.46"><defs><style>.cls-1{fill:none;}.cls-2{fill:#111e72;}.cls-3{fill:#00536f;}.cls-4{fill:#1c7663;}.cls-5{fill:#fca01f;}.cls-6{fill:#e6332a;opacity:0.29;}</style></defs><g id="Layer_2" data-name="Layer 2"><g id="Monitor_Centre" data-name="Monitor Centre"><polygon class="cls-1" points="1009.13 969.28 1010.47 969.53 1009.13 969.28 1009.13 969.28"/><path class="cls-1" d="M1010.5,969.53h0l.23-.25Zm.21-.25.59-.73,1.29-1.36C1012,967.89,1011.34,968.59,1010.71,969.28Z"/><path class="cls-2" d="M435.83,1142.33l-28.5-8.08Q421.51,1138.68,435.83,1142.33Z"/><path class="cls-2" d="M1010.71,969.28c.63-.69,1.25-1.39,1.88-2.09l-1.29,1.36Z"/><path class="cls-3" d="M406.66,1134.05l.63.19h0l28.64,8.11-.1,0,.1,0,1,.25.27-.43q-15.59-3.93-30.81-8.69Z"/><path class="cls-3" d="M678.07,1151.45l1.16.49a577.78,577.78,0,0,0,331.24-182.41l-1.34-.25A578.58,578.58,0,0,1,678.07,1151.45Z"/><path class="cls-3" d="M347.26,1111.36a576.51,576.51,0,0,1-57.38-29l-1.24-.35a577.26,577.26,0,0,0,58,29.52h0Z"/><path class="cls-3" d="M218.3,1033.44A582.25,582.25,0,0,1,78.5,871.66l-.27-.23a578.71,578.71,0,0,0,136.84,159.73h0c1,.83,2.07,1.62,3.1,2.45Z"/><path class="cls-3" d="M195.06,146.22l-.14.48A577.39,577.39,0,0,1,579.56.68C819.27.68,1025,146.2,1113.18,353.73l.52-1.88A577.63,577.63,0,0,0,945.4,129.32l0,0C721.44-52,403.51-39.22,195.06,146.22Z"/><path class="cls-3" d="M407.29,1134.24h0l28.5,8.08.1,0Z"/><path class="cls-4" d="M1.8,534.34Q2.3,528,2.92,521.76,2.29,528,1.8,534.34Z"/><path class="cls-4" d="M78.49,871.65Q65.86,850,55.07,827.11q10.57,22.56,23.14,44.29v0h0v0Z"/><path class="cls-4" d="M3.94,512.32Q4.69,506,5.55,499.7,4.68,506,3.94,512.32Z"/><path class="cls-4" d="M.23,564q.08-2.78.18-5.55Q.31,561.23.23,564Z"/><path class="cls-4" d="M3,520.83c.21-2.13.45-4.25.69-6.36C3.46,516.59,3.22,518.71,3,520.83Z"/><path class="cls-4" d="M0,584.25c0-.92,0-1.85,0-2.78C0,582.4,0,583.33,0,584.25Z"/><path class="cls-4" d="M10.61,469.31q1.91-9.82,4.13-19.53Q12.51,459.52,10.61,469.31Z"/><path class="cls-4" d="M194.91,146.71l.15-.51A583.22,583.22,0,0,0,130.17,214l-1.76,2.18A577.69,577.69,0,0,0,15,448.76,579.19,579.19,0,0,1,194.91,146.71Z"/><path class="cls-4" d="M53.89,824.6c-.51-1.09-1-2.2-1.52-3.3C52.87,822.4,53.38,823.5,53.89,824.6Z"/><path class="cls-4" d="M0,573.53c0-1.79.06-3.58.09-5.36C.1,570,.06,571.74,0,573.53Z"/><path class="cls-4" d="M.16,593.47a2.18,2.18,0,0,1,0-.25A2.18,2.18,0,0,0,.16,593.47Z"/><path class="cls-4" d="M1.2,542.6q.21-3.2.45-6.38C1.49,538.35,1.34,540.47,1.2,542.6Z"/><path class="cls-4" d="M6.91,490.54q1.48-9.62,3.29-19.12Q8.4,481,6.91,490.54Z"/><path class="cls-4" d="M.52,555.79c.15-3.8.35-7.59.58-11.38C.87,548.2.67,552,.52,555.79Z"/><path class="cls-4" d="M5.63,499.12c.29-2.07.6-4.12.91-6.18C6.23,495,5.92,497.06,5.63,499.12Z"/><path class="cls-4" d="M78.22,871.41v0l.27.23h0Z"/><path class="cls-4" d="M346.62,1111.48a579.14,579.14,0,0,0,60,22.58s-.1-.24-.25-.57a578,578,0,0,1-59.15-22.13Z"/><path class="cls-4" d="M347.26,1111.36l-.64.12h0l.64-.12Z"/><path class="cls-4" d="M437.23,1142.18l-.27.43a582,582,0,0,0,242.26,9.33l-1.16-.49a584.27,584.27,0,0,1-240.83-9.27Z"/><path class="cls-4" d="M289.87,1082.3a579.48,579.48,0,0,1-71.57-48.86l-.13.17A585.42,585.42,0,0,0,288.63,1082h0Z"/><path class="cls-4" d="M289.87,1082.3l-1.24-.34h0l1.24.35Z"/><path class="cls-5" d="M1010.5,969.53l.21-.25-.23.25Z"/><path class="cls-4" d="M1113.71,351.86l-.53,1.87a580.17,580.17,0,0,1-104.05,615.55l1.34.25.24-.25.58-.73,1.3-1.37q9.48-10.6,18.56-21.79h0C1171.25,772.38,1195.45,543.26,1113.71,351.86Z"/><path class="cls-6" d="M145.68,448.91c.14-.85.26-1.71.38-2.57C145.94,447.2,145.82,448.06,145.68,448.91Z"/><path class="cls-6" d="M241.26,441.48c.29-1,.86-2.75,1.89-5.6,3.22-8.93,2.32-5.51,3.23-8.9-.91,3.36,0,0-3.23,8.89C242.12,438.73,241.55,440.46,241.26,441.48Z"/><path class="cls-6" d="M131.45,469.18h0c0,.12-1.44,4.67-2.6,9.37C130,473.8,131.45,469.18,131.45,469.18Z"/><path class="cls-6" d="M238.16,451.9c.13-.44.3-1,.54-1.65,1.52-4.41,2.6-7.65,2.6-7.65h0c-.07.21-1.13,3.36-2.6,7.63C238.46,450.93,238.29,451.46,238.16,451.9Z"/><path class="cls-6" d="M251.22,406.65c.61-1.74,1.55-3.74,3.11-7.41.56-1.32.92-2.15,1.17-2.75l-1.16,2.74C252.77,402.9,251.83,404.91,251.22,406.65Z"/><path class="cls-6" d="M247.47,420.29c.15-.69.33-1.5.58-2.52.52-2.11.9-3.51,1.19-4.5-.29,1-.67,2.38-1.19,4.49C247.8,418.78,247.62,419.6,247.47,420.29Z"/><polygon class="cls-6" points="1113.18 353.73 1113.18 353.73 1112.44 356.4 1113.18 353.73"/><path class="cls-6" d="M118.3,410.17c-.06.71-.14,1.62-.22,2.86C118.16,411.79,118.24,410.88,118.3,410.17Z"/><path class="cls-6" d="M145.5,449.88q-.13.84-.3,1.68h0C145.31,451,145.41,450.44,145.5,449.88Z"/><path class="cls-6" d="M5.55,499.7c0-.19.06-.39.08-.58C5.61,499.31,5.58,499.51,5.55,499.7Z"/><path class="cls-6" d="M145,452.8c-.19,1.33.25.6-.05,1.89C145.23,453.39,144.78,454.12,145,452.8Z"/><polygon class="cls-6" points="1013.2 758.51 1016.5 764.29 1016.5 764.29 1013.2 758.51"/><path class="cls-6" d="M126.66,395a42.37,42.37,0,0,1-.28,4.37c0,.06,0,.12,0,.18s0-.12,0-.19A39.4,39.4,0,0,0,126.66,395Z"/><path class="cls-6" d="M146,427.06c-.84-5.3-2.72-4.25-4.27-5.51s-4-3.26-5.47-3.39-6.39-4.15-6.39-4.15a31.48,31.48,0,0,1-5-4,2.72,2.72,0,0,1-.92-2.28A2.74,2.74,0,0,0,125,410a31.48,31.48,0,0,0,5,4s5,4,6.39,4.15,3.92,2.14,5.47,3.4,3.42.21,4.26,5.51a95.45,95.45,0,0,1,.61,13.84q-.21,2.67-.57,5.34c.24-1.78.43-3.57.57-5.36A97,97,0,0,0,146,427.06Z"/><path class="cls-6" d="M140.09,473.09q.53-3.48,1.37-6.89-.84,3.42-1.37,6.9s1.9-2.35.92,4.72C142,470.73,140.09,473.09,140.09,473.09Z"/><polygon class="cls-6" points="999.63 960.14 995.59 948.64 1003.83 923.26 1001.27 894.71 1006.13 879.83 1001.26 894.71 1003.82 923.26 995.59 948.65 999.63 960.14 1001.58 967.88 1009.13 969.28 1009.13 969.28 1001.59 967.88 999.63 960.14"/><path class="cls-6" d="M275.33,350.62c0-.3.2-.1.2-.2S275.36,350.32,275.33,350.62Z"/><path class="cls-6" d="M271.52,360.25l-5.17,10.19c-1.46,2.87-2.25,4.52-2.67,5.51.42-1,1.22-2.64,2.66-5.5l5.17-10.18a4.69,4.69,0,0,0,2.27-2.8c.48-1.54,1.58-1.71,1.81-3.23-.24,1.51-1.34,1.67-1.81,3.22A4.69,4.69,0,0,1,271.52,360.25Z"/><path class="cls-6" d="M274.33,347c0-.22.28.12.26,0S274.33,346.79,274.33,347Z"/><path class="cls-6" d="M3.7,514.47l.24-2.15Z"/><path class="cls-6" d="M233.17,928.69c1.52.8.67,1.84.67,1.84h0C234,930.37,234.58,929.43,233.17,928.69Z"/><path class="cls-6" d="M627.13,856.86l.17,0c.48,0,1-.08,1.43-.14-.47.06-1,.11-1.42.14Z"/><path class="cls-6" d="M560,870.91c6.4.31,20.83,2.73,20.83,2.73s3.21-1.61,8-3.84c-4.84,2.22-8,3.84-8,3.84S566.4,871.22,560,870.91Z"/><rect class="cls-6" x="125.95" y="902.68" width="6.23" height="0.01" transform="translate(-12.65 1.9) rotate(-0.8)"/><polygon class="cls-6" points="224.66 967.25 224.66 967.25 216.68 966.34 224.66 967.25"/><polygon class="cls-6" points="623.1 530.33 620.06 523.37 618.04 515.58 620.06 523.37 623.1 530.33"/><polygon class="cls-6" points="540.77 876.37 554.54 871.87 554.91 871.75 554.55 871.86 540.77 876.37"/><path class="cls-6" d="M614.33,501.27h0a16,16,0,0,1-1.86-2.25A16,16,0,0,0,614.33,501.27Z"/><path class="cls-6" d="M652.64,579.53s10.6-1.68,14.08-.92,6.36,1,8.72,1.92,15.65,8.57,15.65,8.57,65.83,40.37,69.18,84.8c-3.35-44.43-69.17-84.8-69.17-84.8s-13.3-7.69-15.66-8.57-5.23-1.15-8.72-1.92-14.08.91-14.08.91L648.29,576h0Z"/><polygon class="cls-6" points="646.53 572.9 638.55 558.87 630.44 546.61 638.55 558.88 646.53 572.9"/><polygon class="cls-6" points="518.77 876.29 527.49 873.57 539.18 876.89 539.18 876.88 527.49 873.57 518.77 876.29"/><path class="cls-6" d="M130.15,368c-.1-.22-.23-.43-.36-.73C129.92,367.52,130.05,367.73,130.15,368Z"/><path class="cls-6" d="M278.4,934.52c1.57,1-.51,2.36,1.16,3.58C277.9,936.88,280,935.48,278.4,934.52Z"/><path class="cls-6" d="M255.36,924.14c.69.81.2,2.41.2,2.41h0S256.06,925,255.36,924.14Z"/><path class="cls-6" d="M324.85,944.9c1,.73.39,2.13.39,2.13h0C325.3,946.92,325.86,945.6,324.85,944.9Z"/><path class="cls-6" d="M432.67,923.67a13.2,13.2,0,0,1-1.91.54A12.13,12.13,0,0,0,432.67,923.67Z"/><path class="cls-6" d="M134.21,924.35a23.22,23.22,0,0,1,2.43,4.49c.21.47.43,1,.64,1.47-.21-.51-.43-1-.64-1.47A23.22,23.22,0,0,0,134.21,924.35Z"/><path class="cls-6" d="M382.14,937.65c-.85-2.74-2.87-1.52-9.13-6.48s-13-10.55-13-10.55h0c.06,0,6.79,5.6,13,10.54s8.28,3.73,9.13,6.48,6.2,5,6.2,5h0C388.28,942.65,383,940.38,382.14,937.65Z"/><path class="cls-6" d="M6.54,492.94c.12-.8.24-1.6.37-2.4C6.78,491.34,6.66,492.14,6.54,492.94Z"/><path class="cls-6" d="M252.17,467.75l0,.2c.05-.25.09-.45.1-.39S252.21,467.57,252.17,467.75Z"/><path class="cls-6" d="M252.14,468c-.07.34-.15.77-.15.77Z"/><path class="cls-6" d="M281.7,353.19a13.51,13.51,0,0,1,.46,2.65A13.25,13.25,0,0,0,281.7,353.19Z"/><path class="cls-6" d="M285.32,324.18l-7.27-15.12-18.39-7.72s-13.8-3-14.14-10.16c.32,7.14,14.13,10.18,14.13,10.18l18.4,7.72,7.27,15.12s.93,8.88.88,12.72C286.26,333.09,285.32,324.18,285.32,324.18Z"/><path class="cls-6" d="M234.5,467.63v0Z"/><path class="cls-6" d="M262.59,381c-.91,2.4-1.74,3.16-3.46,6.92C260.85,384.12,261.68,383.35,262.59,381Z"/><path class="cls-6" d="M249.34,412.9a.5.5,0,0,1,0,.13A.5.5,0,0,0,249.34,412.9Z"/><path class="cls-6" d="M226.91,503.31c.08-.24.16-.5.26-.77l.29-.92c-.1.3-.18.6-.29.9Z"/><path class="cls-6" d="M680.74,377.07c-3.7,7-5.08,9.31-7,13.75C675.67,386.38,677.05,384.05,680.74,377.07Z"/><path class="cls-6" d="M630.14,856.49l-.68.1Z"/><path class="cls-6" d="M671.78,138.28c2.94-1.47,6.24-4.18,14.49-6.75s7,1.82,9.32,3.7,19.66,5.22,19.66,5.22a29.91,29.91,0,0,0,9.12-2.71c4-2.13,2.91-.73,6.19-1.93s0,0,5.25-2.68c2.05-1,2.5-1.27,2.55-1.27a24.38,24.38,0,0,0-2.55,1.27c-5.25,2.68-2,1.48-5.25,2.68s-2.16-.2-6.19,1.92a29.71,29.71,0,0,1-9.12,2.71s-17.33-3.33-19.66-5.22-1.08-6.27-9.32-3.7-11.55,5.29-14.49,6.75c-1.1.55-1.32.31-1.34,0C670.46,138.58,670.67,138.83,671.78,138.28Z"/><path class="cls-6" d="M740.31,131.39c4.49-1.75,4.67-.07,9.44.71s9.14,2,12.89,1.19,4.3.4,8.88-.51a46.26,46.26,0,0,1,5.52-.15,138.39,138.39,0,0,0,14.4-.66c4.21-.45,4.76.77,6.91,1s4.21-.44,6.74-.7,6.24,2.75,6.24,2.75l5.7,1.52s12.47,9.33,15.35,12.43a28.56,28.56,0,0,0,6,4.9h0a28.16,28.16,0,0,1-6-4.89C829.5,145.83,817,136.5,817,136.5L811.33,135s-3.73-3-6.25-2.74-4.58.91-6.73.71-2.7-1.42-6.91-1a138.64,138.64,0,0,1-14.4.66,44.2,44.2,0,0,0-5.52.16c-4.59.9-5.14-.32-8.88.5s-8.13-.42-12.9-1.19-4.94-2.46-9.44-.71c-1.52.59-1.93.67-2,.63S738.71,132,740.31,131.39Z"/><polygon class="cls-6" points="852.62 171.49 842.03 158.32 852.62 171.5 852.62 171.49"/><path class="cls-6" d="M670.49,137.88c0-.2-.17,0-1.66,1.86a2.09,2.09,0,0,0-.57,1.33,2.11,2.11,0,0,1,.57-1.33C670.3,137.93,670.49,137.69,670.49,137.88Z"/><path class="cls-6" d="M671.56,143.13c0,.16-1.5.31-6.12.8-5.07.53-8,.65-10,.71,2,0,4.92-.18,10-.71C670.11,143.44,671.54,143.29,671.56,143.13Z"/><path class="cls-6" d="M588.43,142.21c.18-.39,2.26-1,2.24-1.11C590.52,141.21,588.57,141.84,588.43,142.21Z"/><path class="cls-6" d="M1065.77,590.58c.76-1.43,1.21-2.29,1.48-2.84-.27.55-.72,1.41-1.48,2.84-3.78,7.21-4.43,11.81-10.22,21.5l-1.12,1.89,1.12-1.88C1061.34,602.4,1062,597.79,1065.77,590.58Z"/><path class="cls-6" d="M536.55,1143.58a24.67,24.67,0,0,1-7.1-2.94c-1.32-.85-2.84-2.05-4.43-3.2,1.59,1.15,3.11,2.36,4.43,3.2A24.67,24.67,0,0,0,536.55,1143.58Z"/><path class="cls-6" d="M.13,568.17c0-1.39.06-2.77.1-4.16C.19,565.4.16,566.78.13,568.17Z"/><path class="cls-6" d="M665.59,1148.18a73.64,73.64,0,0,0-8.79.07c-3.37.36-4.55-.09-8.85-.49s-11.26-1.93-11.26-1.93l-4.92-.91s-4.61-.65-6.72-1.84c-1.39-.79-4.42-2.25-6.35-3.16,1.93.92,5,2.37,6.34,3.16,2.12,1.2,6.72,1.85,6.72,1.85l4.92.9s7,1.53,11.27,1.94,5.48.84,8.85.48a73.64,73.64,0,0,1,8.79-.07l5.41.28,7.06,3h0l-7.06-3Z"/><path class="cls-6" d="M0,580.24c0,.41,0,.82,0,1.23,0-2.65,0-5.29,0-7.94C0,575.76,0,578,0,580.24Z"/><path class="cls-6" d="M.15,593.22c-.07-3-.1-6-.12-9Q.06,588.75.15,593.22Z"/><path class="cls-6" d="M442.41,1135.89a9,9,0,0,1,3.94-1,9,9,0,0,0-3.94,1c-2.15,1.62-4.42,5.08-5.18,6.29h0C438,1141,440.26,1137.51,442.41,1135.89Z"/><path class="cls-6" d="M579.2,1149.6l4.07-.07-4.07.07a31.92,31.92,0,0,1-5.22-.25A31.92,31.92,0,0,0,579.2,1149.6Z"/><path class="cls-6" d="M592.05,1147.68a12.36,12.36,0,0,1-4,1.17,12.36,12.36,0,0,0,4-1.17Z"/><path class="cls-6" d="M558.56,1147.49a28.75,28.75,0,0,0,3.52.27A28.75,28.75,0,0,1,558.56,1147.49Z"/><path class="cls-6" d="M459.82,1135.07l.5,0Z"/><polygon class="cls-6" points="274.91 1026.94 269.84 1027.19 274.91 1026.95 274.91 1026.94"/><path class="cls-6" d="M.41,558.46c0-.89.07-1.78.11-2.67C.48,556.68.44,557.57.41,558.46Z"/><path class="cls-6" d="M615.38,108.81c0-.42-1.18-.71-1.2-.82C614.15,108.1,615.39,108.38,615.38,108.81Z"/><path class="cls-6" d="M532,105.18a36.75,36.75,0,0,1,10.38-2.37c6.74-.7,7.49-1.63,7.49-1.63a92.49,92.49,0,0,0,13.59-4.41c9-3.5,10.39-2.37,10.39-2.37l9.46-3.12a33.59,33.59,0,0,0,7.86-2.11c4.5-1.75,6.74-.7,9.18-1.81s4.12-1.29,8.41-.89a21.9,21.9,0,0,1,6.54,1.44s5.71-2.3,6.85-3.69,10.1-1.07,10.1-1.07l4.46.2,10.76,2.89s5.87,3.21,8.84,7.15a3.93,3.93,0,0,1,.44.76,3.93,3.93,0,0,0-.44-.76c-3-4-8.84-7.16-8.84-7.16L636.7,83.34l-4.46-.19s-9-.33-10.11,1.06-6.84,3.7-6.84,3.7a21.6,21.6,0,0,0-6.54-1.44c-4.29-.4-6-.23-8.42.88s-4.67.07-9.17,1.82a34.07,34.07,0,0,1-7.86,2.1l-9.46,3.12s-1.4-1.13-10.39,2.37a91.31,91.31,0,0,1-13.59,4.41s-.75.93-7.48,1.64a36.73,36.73,0,0,0-10.4,2.37s-6.44-.6-10.68,3.68a64.7,64.7,0,0,1-7.71,6.71,64,64,0,0,0,7.72-6.71C525.54,104.58,532,105.18,532,105.18Z"/><path class="cls-6" d="M558.69,128.4l2.13.13s1.17-.29,2.7-.72c-1.52.43-2.69.72-2.69.72Z"/><path class="cls-6" d="M1114.31,435.49h0Z"/><path class="cls-6" d="M570.91,124.93h.1A.33.33,0,0,0,570.91,124.93Z"/><path class="cls-6" d="M406.41,1133.49h0l-.61-1.35C406.06,1132.69,406.27,1133.15,406.41,1133.49Z"/><polygon class="cls-6" points="595.06 110.04 596.99 109.99 595.06 110.04 595.06 110.04"/><polygon class="cls-6" points="990.99 715.9 992.86 719.18 990.99 715.9 990.99 715.9"/><polygon class="cls-6" points="507.85 122.61 507.86 122.61 512.02 117.47 507.85 122.61"/><polygon class="cls-6" points="225.74 156.8 228.55 155.71 225.74 156.8 225.74 156.8"/><path class="cls-6" d="M52.37,821.3A582.32,582.32,0,0,1,.16,593.47,576.82,576.82,0,0,0,52.37,821.3Z"/><path class="cls-6" d="M55.07,827.11c-.39-.83-.79-1.67-1.18-2.51C54.28,825.44,54.68,826.28,55.07,827.11Z"/><path class="cls-6" d="M230.36,148.29a37,37,0,0,0-4.47,2l-3.68,10.88h0l3.68-10.88A36.85,36.85,0,0,1,230.36,148.29Z"/><path class="cls-6" d="M94.25,352.77c0,.22,0,.42,0,.62,0-.19,0-.4,0-.61.21-3.42,0-3.11.79-6a6,6,0,0,0,.27-1.35,6.54,6.54,0,0,1-.27,1.34C94.21,349.65,94.46,349.34,94.25,352.77Z"/><path class="cls-6" d="M134.44,249.24c-.42,6.85-5.49,1.7-8,9.92s-5.26,4-7,8.58-2.48,4.32-5.52,13.16-4.26,2.71-6,7.44-3.27,6.59-5.16,10.19-1.93,8.72-1.93,8.72h0c0-.09,0-5.13,1.92-8.7s3.4-5.47,5.17-10.2,3,1.39,6-7.44,3.83-8.54,5.52-13.16,4.41-.36,7-8.58,7.62-3.07,8-9.92a11.6,11.6,0,0,0,0-1.57A11.46,11.46,0,0,1,134.44,249.24Z"/><path class="cls-6" d="M95.18,345a8,8,0,0,1,.68-1.2c1.45-2.42,10.5-26.93,10.5-26.93h0c-.1.28-9.06,24.5-10.5,26.91A7.4,7.4,0,0,0,95.18,345Z"/><path class="cls-6" d="M1113.64,506.1a21.16,21.16,0,0,0,2.48-10.23,21.16,21.16,0,0,1-2.48,10.23c-3.28,6.59-6.53,8.07-6.53,8.07l-3.49,4.68,3.49-4.68S1110.36,512.69,1113.64,506.1Z"/><path class="cls-6" d="M14.74,449.78l.24-1Z"/><path class="cls-6" d="M1115.66,460.5c.3-8,.41-6.86-.53-15.84s.16-4-.7-6.73a4.86,4.86,0,0,1-.14-2.31,4.93,4.93,0,0,0,.13,2.3c.86,2.75-.23-2.24.71,6.74s.82,7.86.53,15.83-.54,5.74-.09,15.34a51.19,51.19,0,0,0,.74,7.05,51,51,0,0,1-.74-7.05C1115.13,466.23,1115.36,468.47,1115.66,460.5Z"/><path class="cls-6" d="M1096.61,528.26h0a16.39,16.39,0,0,0-4.81.39A16.42,16.42,0,0,1,1096.61,528.26Z"/><path class="cls-6" d="M118,419.79v0Z"/><path class="cls-6" d="M226.39,1032.34s8,3.41,10.5,5.42,2.93.83,5.48.84a47.65,47.65,0,0,1,8.85.49c6.6.73,7.24-1.59,12.32,2.53l9.54,7.73c3.41,2.76,5.37.49,5.37.49a10.79,10.79,0,0,1,3.86,1.58c1.68,1.43,9.93,6.71,13.54,7.38,4.1.75,7.71,3.15,12.36,6.92l6.52,5.28c1.55,1.25,5.4,2.84,7.77,3.72s5.34,2.28,9.51,4.11,7.15,3.22,10.75,5.11,10.94,4.24,13.19,4,4.47,2.09,8,2.1,3.73,1.22,7.46,1.67,7.13,5.78,8.37,6.78a4.81,4.81,0,0,1,2,2.64,1,1,0,0,1,.06.57,1,1,0,0,0-.06-.58,4.85,4.85,0,0,0-2-2.63c-1.25-1-4.65-6.32-8.38-6.78s-4-1.66-7.46-1.67-5.73-2.33-8-2.1-9.59-2.11-13.19-4-6.59-3.28-10.75-5.12-7.15-3.21-9.51-4.1-6.22-2.47-7.77-3.73l-6.51-5.27c-4.66-3.77-8.27-6.17-12.37-6.93-3.61-.66-11.86-6-13.54-7.37a10.79,10.79,0,0,0-3.86-1.58s-2,2.27-5.37-.5l-9.54-7.72c-5.08-4.12-5.72-1.81-12.32-2.54a47.64,47.64,0,0,0-8.85-.48c-2.55,0-3,1.16-5.48-.85s-10.5-5.42-10.5-5.42l-6.35-1-1.74,2.14h0l1.74-2.14Z"/><path class="cls-6" d="M118.28,430.26c-.15,2-.2,2.74-.19,2.85,0-.15,0-.89.2-2.84.12-1.69.16-3.07.14-4.24C118.45,427.19,118.41,428.58,118.28,430.26Z"/><path class="cls-6" d="M1076.1,562.85c-.18.54-.37,1.11-.57,1.74-2.15,6.41-2.89,4.87-6.25,15.16,3.36-10.28,4.11-8.74,6.25-15.16C1075.74,564,1075.92,563.39,1076.1,562.85Z"/><path class="cls-6" d="M10.2,471.42c.14-.7.27-1.41.41-2.11C10.47,470,10.34,470.72,10.2,471.42Z"/><path class="cls-6" d="M185.28,166.15c-3.27,6.58-3.63,3.22-7.53,9.3s-1.38,3-2.92,10-3.75,2.1-5.53,6.83-4,5-4,5a82.49,82.49,0,0,0-6.41,9.19c-2.39,4.22-4.52,5.58-12.86,22.22s-6.87,6-11.16,13.78c-1.51,2.76-1.95,3.57-1.91,3.77,0-.23.45-1.08,1.91-3.75,4.29-7.83,2.82,2.86,11.16-13.78s10.47-18,12.87-22.23a81.69,81.69,0,0,1,6.41-9.19s2.24-.23,4-5,4,.15,5.53-6.82-1-3.87,2.92-10,4.26-2.71,7.54-9.3h0c3.28-6.59,6.4-8.17,6.4-8.17l3.23-11.29h0L191.68,158S188.56,159.56,185.28,166.15Z"/><path class="cls-6" d="M376,1117.48l-1.06-.32c-1.61-.47-3.21-1-4.79-1.6,1.58.59,3.18,1.13,4.79,1.6Z"/><path class="cls-6" d="M401.47,1124.3l-.1-.08.1.08Z"/><path class="cls-6" d="M403.63,1127.63a13.52,13.52,0,0,0-2.16-3.33h0A13.52,13.52,0,0,1,403.63,1127.63Z"/><path class="cls-6" d="M376,1117.49h0Z"/><path class="cls-6" d="M1.65,536.22l.15-1.88Z"/><path class="cls-6" d="M1.1,544.41c0-.6.07-1.2.1-1.81C1.17,543.2,1.13,543.81,1.1,544.41Z"/><path class="cls-6" d="M2.92,521.76l.09-.93Z"/><path class="cls-6" d="M357.71,1112a37.84,37.84,0,0,0,7.06,1.5A38.67,38.67,0,0,1,357.71,1112Z"/><path class="cls-6" d="M279.75,1043.17l-15.36-8.31s-6.27-3-8.42-4.18-.06-3.73,1.44-5.58a1.28,1.28,0,0,1,.75-.44,1.23,1.23,0,0,0-.76.44c-1.5,1.86-3.58,4.44-1.43,5.59s8.42,4.17,8.42,4.17l15.35,8.32s3.1,2.51,4.66,1.21h0C282.83,1045.67,279.75,1043.17,279.75,1043.17Z"/><path class="cls-3" d="M1009.13,969.28l-7.55-1.4-1.94-7.74-4-11.49,8.23-25.39-2.56-28.55,4.87-14.88,4.15-12.74L1022.4,842l8.31-34.35-11.88-15.78-.65-17-1.68-10.61-3.3-5.78-4.35-7.6-10.22-21.63-5.77-10.1L991,715.9h0l1-20.71,10.41-21.35,19.83-22,6.16-3.23c6.15-3.23,2.11-4.44,6.75-8.9s5-6.2,10.55-13c5.13-6.34,4.2-5.18,8.69-12.76l1.12-1.89c5.79-9.69,6.44-14.29,10.22-21.5.76-1.43,1.21-2.29,1.48-2.84,1.08-2.2-.8.74,2-7.73a2.58,2.58,0,0,0,.08-.26c3.36-10.29,4.1-8.75,6.25-15.16.2-.63.39-1.2.57-1.74,1.64-5.08,1.87-6.86.92-10.4-1-3.93,3.47-5.41,4.89-13.5s5-6.21,7-8.69a5.45,5.45,0,0,1,2.86-1.61,16.39,16.39,0,0,1,4.81-.39l7-9.41,3.49-4.68s3.25-1.48,6.53-8.07a21.16,21.16,0,0,0,2.48-10.23,41.65,41.65,0,0,1,.48-4.83c.67-4.12.22-5.26-.29-8.16a51.19,51.19,0,0,1-.74-7.05c-.45-9.6-.21-7.36.09-15.34s.41-6.85-.53-15.83.15-4-.71-6.74a4.93,4.93,0,0,1-.13-2.3c0-.05,0-.09,0-.13h0a7,7,0,0,1,1.26-2.78l1.8-9.84-2.68-9.36.41-6.86-2.3-11.11s1.69-10.95,3.19-12.82h0c1.51-1.86-4.21-24-4.21-24l.66-2.36.74-2.67C1025,146.2,819.27.68,579.56.68a577.39,577.39,0,0,0-384.64,146L191.69,158s-3.12,1.58-6.4,8.17h0c-3.28,6.59-3.64,3.22-7.54,9.3s-1.38,3-2.92,10-3.75,2.1-5.53,6.82-4,5-4,5a81.69,81.69,0,0,0-6.41,9.19c-2.4,4.23-4.53,5.58-12.87,22.23s-6.87,5.95-11.16,13.78c-1.46,2.67-1.92,3.52-1.91,3.75s1.31-.9,1.5,1.53a11.6,11.6,0,0,1,0,1.57c-.42,6.85-5.5,1.71-8,9.92s-5.26,4-7,8.58-2.47,4.33-5.52,13.16-4.25,2.72-6,7.44-3.28,6.59-5.17,10.2-1.92,8.61-1.92,8.7l2.21,4.87,3.34,4.76h0s-9,24.51-10.5,26.93a8,8,0,0,0-.68,1.2c0,.08.14,0,.13.37a6,6,0,0,1-.27,1.35c-.83,2.93-.58,2.62-.79,6,0,.21,0,.42,0,.61.06,2.9,1.87,3.74,2.08,8.24.22,4.8.61,3.06.61,3.06s5.4,13.62,7.75,17.06,5.39,5.4,5.93,7.89,4.37,9.19,4.37,9.19a52.45,52.45,0,0,0,2.39,6.56c1.09,2.38,1.15,2.28.93,4.78-.06.71-.14,1.62-.22,2.86,0,.34,0,.69-.07,1.08-.41,6.66.07,3.86,0,5.51v.17c-.06,1.46.35,3,.39,6.24,0,1.17,0,2.55-.14,4.24-.15,2-.21,2.69-.2,2.84s.35-2.23.68-.91c.49,1.93,5.76,6.2,5.76,6.2a49.45,49.45,0,0,1,2.63,8.8,55.79,55.79,0,0,0,2.8,10.49,39.4,39.4,0,0,1,1.49,11.48h0s-1.43,4.62-2.6,9.37c-.4,1.58-.76,3.18-1,4.62-1.1,5.79.26,7.92.26,7.92s2.79,13,4,14,1.95-3,4.55-10.69,3.1-8.27,4.27-16.05c0-.2.06-.39.08-.57,1-7.07-.92-4.72-.92-4.72q.53-3.48,1.37-6.9t2-6.8c.87-2.66,1.27-4,1.44-4.71.3-1.29-.14-.56.05-1.89,0-.3.11-.69.23-1.24s.21-1.12.3-1.68l.18-1c.14-.85.26-1.71.38-2.57v-.08q.36-2.67.57-5.34a95.45,95.45,0,0,0-.61-13.84c-.84-5.3-2.71-4.26-4.26-5.51s-4-3.27-5.47-3.4-6.39-4.15-6.39-4.15a31.48,31.48,0,0,1-5-4,2.74,2.74,0,0,1-.92-2.29,8.23,8.23,0,0,1,1-2.27c.92-1.77.88-2.34,1.32-5.91,0-.06,0-.12,0-.18a42.37,42.37,0,0,0,.28-4.37c0-2.27,0-4.93.29-9,.42-6.86-.34-5.92,2.07-12.7,1.35-3.81,1.41-4.62,1.13-5.29-.1-.22-.23-.43-.36-.73a6.14,6.14,0,0,1-.47-2c-.41-3.93,1.45-2.42,4.77-5.89s1.76-2.17,6.78-8.37,5.14-5.08,8.22-8.24,7.08-5.57,8.08-6.81,16.28-1.71,19.78-3.5S190.16,325,190.16,325a45.67,45.67,0,0,0,5.1-1.86c3.81-1.53,4.12-1.28,12.85-1.91s7.85,1.72,11.52,1.62,5.54,1.41,8.15,2,5.74.54,10.66,1.44,7.59,2,9.89,2.36,6.84,3,6.84,3a24.69,24.69,0,0,1,5.6,2c2.11,1.19,4.78,2.33,6.64,3.83s3.11,2.52,5.88,7.33a23.14,23.14,0,0,1,1.3,2.32c0,.09-.25-.25-.26,0a6.51,6.51,0,0,0,.5,1.52,9,9,0,0,1,.7,1.87c0,.1-.16-.1-.2.2a6.09,6.09,0,0,0,.16,1.55,6.11,6.11,0,0,1,.1,2.07c-.23,1.52-1.33,1.69-1.81,3.23a4.69,4.69,0,0,1-2.27,2.8l-5.17,10.18c-1.44,2.86-2.24,4.51-2.66,5.5-1.08,2.51.29.68-.63,3.63-.16.52-.31,1-.46,1.37-.91,2.4-1.74,3.17-3.46,6.92-.29.63-.6,1.34-.94,2.15-2.05,4.93-1.9,4.62-2.69,6.47-.25.6-.61,1.43-1.17,2.75-1.56,3.67-2.5,5.67-3.11,7.41a19,19,0,0,0-.68,2.34c-.39,1.76-.57,1.83-1.2,3.91a.5.5,0,0,1,0,.13l-.06.24c-.29,1-.67,2.39-1.19,4.5-.25,1-.43,1.83-.58,2.52-.9,4.26-.15,3.17-1,6.43,0,.1,0,.18-.07.26-.91,3.39,0,0-3.23,8.9-1,2.85-1.6,4.58-1.89,5.6-.64,2.25,0,1.11,0,1.11v0h0s-1.08,3.24-2.6,7.65c-.24.69-.41,1.21-.54,1.65-.73,2.36-.21,1.86-1.13,6.74-.88,4.69-1.75,6-2.53,9v0c-.18.69-.36,1.46-.53,2.38-.9,4.91-1.61,9-1.61,9s-1.09,5.79-1.61,9a47.29,47.29,0,0,1-1.6,6.41,44.09,44.09,0,0,1-1.69,7.25l-.29.92c-.1.27-.18.53-.26.77-1.16,3.61-.53,3.68-1.73,9.92-1.29,6.66-.42,6.85-1.26,12.33s-.53,5.73-.53,5.73-2.17,9-3.46,15.69.9,5.86.57,8.17,2.44-1.11,2.44-1.11l2.52-3.1c2.51-3.1,1.45-5,2.59-7.66s1.52-4.41,3.86-9.2,3-6.27,3-6.27,1.79-7.29,4.46-16.93,2.59-5.1,6.75-14.05,3.31-11.69,3.64-14,1-4.35,1.93-11.26c.4-2.84.52-3.83.52-4s-.05.14-.1.39l-.15.77s.08-.43.15-.77l0-.2,0,.18L254,458a103.37,103.37,0,0,0,3.43-10.57c1.84-6.72,1.07-3.24,3.36-11.14s.34-4.86,1.81-9.83,8-28.94,8.85-31.86,8.33-28.68,8.33-28.68a73.52,73.52,0,0,1,2-8.16,7.23,7.23,0,0,0,.4-1.91,13.51,13.51,0,0,0-.46-2.65,3.85,3.85,0,0,1,0-1.11c.32-2.3,3.5-12.57,4.25-13.5a3.86,3.86,0,0,0,.22-1.66c.05-3.84-.88-12.72-.88-12.72l-7.27-15.12-18.4-7.72s-13.81-3-14.13-10.18c-.08-1.65.56-3.51,2.26-5.61,9-11.16,8.27-7.68,12-9.78s2.52-3.1,4-5,8.24-2.57,8.24-2.57,5.88-3.45,12.12-3.54,2.39-4.23,5-6.2,7.12-2.45,7.12-2.45,5-1.09,7.74-1.95a105.53,105.53,0,0,0,9.75-4.43s10-7.3,13.14-9.89,10.64-6.8,10.64-6.8l17.93,3.23s9-.95,16-4.52,8.36-1.45,11.73-1.8,13.08.33,13.08.33l62.66-14s7.46,2.2,11.12.54,4.59-.91,7.78-2.95,14.33-5.34,14.33-5.34l28.23-31.05c28.24-31.06,41.68-28.63,46.56-30.85s0,0,16.2-3.83c6.16-1.46,7.63-1.8,7.48-1.69,0,.07-2.06.72-2.24,1.11-.07.2.39.32,2,.25,7.21-.33,6.55,1.44,14.3,2.33s5.68,1.53,12.77,1.87,4.13,1,6.74,1.61,2.52-.26,10.19-.22,3.83,0,11.7-2.08a30,30,0,0,1,9.37-1.33c2-.06,4.92-.18,10-.71,4.62-.49,6.07-.64,6.12-.8s-3.22-.52-3.3-2.06a2.09,2.09,0,0,1,.57-1.33c1.49-1.84,1.67-2.06,1.66-1.86a2.87,2.87,0,0,0,0,.4c0,.3.24.54,1.34,0,2.94-1.46,6.24-4.18,14.49-6.75s7,1.82,9.32,3.7,19.66,5.22,19.66,5.22a29.71,29.71,0,0,0,9.12-2.71c4-2.12,2.91-.73,6.19-1.92s0,0,5.25-2.68a24.38,24.38,0,0,1,2.55-1.27s-.09.11-.06.15.48,0,2-.63c4.5-1.75,4.68-.07,9.44.71s9.15,2,12.9,1.19,4.29.4,8.88-.5a44.2,44.2,0,0,1,5.52-.16,138.64,138.64,0,0,0,14.4-.66c4.21-.44,4.76.78,6.91,1s4.21-.45,6.73-.71,6.25,2.74,6.25,2.74L817,136.5s12.48,9.33,15.36,12.44a28.16,28.16,0,0,0,6,4.89h0l3.6,4.48,10.59,13.17h0s-2.43,9.33-25.06,42.36-33.26,18.25-51.68,75.23L747,313.41s-7.78,7-10.27,7.6-8.88,4.62-8.88,4.62a33.22,33.22,0,0,0-7,3.57c-3.44,2.35-8.27,7.68-12.41,11.52a87.58,87.58,0,0,0-10,10.41c-3.52,4.34-5.08,5.64-9.1,10.6s-1.51,1.87-7.18,12.67l-1.41,2.67c-3.69,7-5.07,9.31-7,13.75-.38.91-.78,1.89-1.23,3-2.91,7.41-7.48,20.66-7.7,26.64s.3,2.8-.22,6-3.59,17.12-3.59,17.12-44.47,35.88-49.37,43.21c-3.22,4.8-1.07,9.53.79,12.22a16,16,0,0,0,1.86,2.25h0L618,515.58l2,7.78,3,7,6.68,15.28.66,1,8.11,12.26,8,14,1.76,3.11,4.35,3.51s10.6-1.68,14.08-.91,6.36,1,8.72,1.92,15.66,8.57,15.66,8.57,65.82,40.37,69.17,84.8c.05.7.09,1.41.11,2.12,1.35,45.25-26.48,93.58-26.48,93.58a22.86,22.86,0,0,1-7,8.68c-4.75,3.34-12.52,10.4-16.15,13.62s-15.37,12.21-15.37,12.21l-3.51,4.33s-31,27.28-33,29.76c-1.88,2.33-14.57,15.77-28.69,18.29l-.68.1-.73.11c-.48.06-1,.11-1.43.14l-.17,0c-10.38.77-28,8.23-38.25,12.94-4.84,2.23-8,3.84-8,3.84s-14.43-2.42-20.83-2.73a10.05,10.05,0,0,0-2.7.1l-2.39.74-.37.12-13.77,4.49-1.59.52h0l-11.7-3.32-8.71,2.72-2.27.71-10.4,9s-50.55.14-55.39,2.38-2.9,10-2.9,10l-6.08,17.67c-6.38,4.08-5.76,4.57-10,7.29-.93.6-1.11.81-.95.85a13.2,13.2,0,0,0,1.91-.54c.14,0-.89.45-5.21,2.41-11.38,5.17-14.93,9.48-14.93,9.48l-24.19,7.11h0s-5.34-2.27-6.2-5-2.87-1.53-9.13-6.48-13-10.5-13-10.54l-11.81,7-12.55,15.5L325.25,947h0s.65-1.4-.39-2.13a4,4,0,0,0-2.7-.37,43.26,43.26,0,0,1-9.1-.18s-7.09-2.66-10-2.93l-8.59-.8-6.2.12a33.81,33.81,0,0,1-7.63-2.07,4.19,4.19,0,0,1-1.11-.57c-1.67-1.22.41-2.62-1.16-3.58a10.13,10.13,0,0,0-3.93-.87,47.7,47.7,0,0,1-15.8-4.58l-3.1-2.51h0s.49-1.6-.2-2.41c-.42-.49-1.26-.69-2.9-.09-4.37,1.59-14.35,3.78-16.48,5.13l-2.13,1.36,0,0h0s.85-1-.67-1.84a7.64,7.64,0,0,0-2.42-.66c-4.61-.65-12.2-2.69-12.2-2.69l-7,8.68a42.92,42.92,0,0,1,8.69,7c4.46,4.64,8.65,12.14,8.65,12.14l-4.2,14.06h0l-8-.91-2.36-.27s-1,1.25-5,1.1l-4-.15-9.21-1.3-5.5,1.71-3.72-3-6.12,1.21-5.73-.53-3.72-3-7.35.21-16.13-13.06s-5.85-1.66-6.2-5a40.45,40.45,0,0,0-1.95-7.74s-1.17-3.2-2.43-6.15c-.21-.51-.43-1-.64-1.47a23.22,23.22,0,0,0-2.43-4.49,16.32,16.32,0,0,0-2.89-2.89l-8.68-7,.79-8.59,2.51-3.1h0l6.22-.08L129,899l-5.35-2.28-7-1.54C110.18,893,99,889.1,99,889.1L78.5,871.66a582.25,582.25,0,0,0,139.8,161.78l1.74-2.14,6.35,1s8,3.42,10.5,5.42,2.93.83,5.48.85a47.64,47.64,0,0,1,8.85.48c6.6.73,7.24-1.58,12.32,2.54l9.54,7.72c3.41,2.77,5.37.5,5.37.5a10.79,10.79,0,0,1,3.86,1.58c1.68,1.42,9.93,6.71,13.54,7.37,4.1.76,7.71,3.16,12.37,6.93l6.51,5.27c1.55,1.26,5.41,2.84,7.77,3.73s5.34,2.27,9.51,4.1,7.15,3.23,10.75,5.12,10.94,4.24,13.19,4,4.47,2.08,8,2.1,3.73,1.21,7.46,1.67,7.13,5.78,8.38,6.78a4.85,4.85,0,0,1,2,2.63,1,1,0,0,1,.06.58c-.26,1.68-3.83,4.08-3.83,4.08s-13,.23-15,.72-9-4.21-9-4.21-4.68-1.73-7-2.62-10.94-4.24-14.68-4.7-5.11,0-8-1.52a9.07,9.07,0,0,0-5.31-1s-8.14-4.53-10.81-5.67h0a12.35,12.35,0,0,0-5.48-.84l-12.79-3.58a576.51,576.51,0,0,0,57.38,29c1.84-.32,7.18-1.11,9.17.08a7.7,7.7,0,0,0,1.28.59,38.67,38.67,0,0,0,7.06,1.5l.68.09c1.53.7,3.09,1.35,4.66,1.94s3.18,1.13,4.79,1.6l1.06.32H376c5.07,1.5,5.4,1,11.27.87,6.17-.14,12.4,4.5,14.09,5.85l.1.08h0a13.52,13.52,0,0,1,2.16,3.33c.8,1.52,1.6,3.23,2.18,4.51l.61,1.35q15.22,4.76,30.81,8.69c.76-1.21,3-4.67,5.18-6.29a9,9,0,0,1,3.94-1,103.45,103.45,0,0,1,13.47.14l.5,0h.25c1.68-.15,28.71-2.72,41.51-3.79,13.22-1.11,13.27,2,16.75,2.78a18.35,18.35,0,0,1,6.19,3.34c1.59,1.15,3.11,2.35,4.43,3.2a24.67,24.67,0,0,0,7.1,2.94l4.41,1.24c5.85,1.66,7,1.54,15,2.4l2.6.27a28.75,28.75,0,0,0,3.52.27c.51,0,1.37.07,3,.2,4.22.31,6.06,1,8.86,1.39a31.92,31.92,0,0,0,5.22.25l4.07-.07a11,11,0,0,0,3.53-.45l1.2-.23a12.36,12.36,0,0,0,4-1.17c2.43-1.11,6.57-5,6.57-5a41.32,41.32,0,0,0,5.51-4.26,7,7,0,0,1,5.5-1.71l7.34,2.34,1.73.82c1.93.91,5,2.37,6.35,3.16,2.11,1.19,6.72,1.84,6.72,1.84l4.92.91s7,1.53,11.26,1.93,5.48.85,8.85.49a73.64,73.64,0,0,1,8.79-.07l5.42.28,7.06,3A578.58,578.58,0,0,0,1009.13,969.28ZM237.73,152.14l-9.18,3.57-2.81,1.09-3.52,4.34h0l3.68-10.88a36.13,36.13,0,0,1,12.37-3.86ZM252,468.7s.07-.43.14-.77Zm400.6-366s-11.43,4.61-15.55,5.89-3.37.35-16.64-.38c-4.93-.27-6.19-.34-6.22-.24s1.22.4,1.2.82-.58.65-2.46,1.06c-7.49,1.64-12.35,0-12.35,0L597,110l-1.93.05-14.36,9.17c-8.38,5.36-9.39,5.71-9.69,5.72h-.1c-.09,0-.21,0-.72.4a31.38,31.38,0,0,1-6.67,2.48c-1.53.43-2.7.72-2.7.72l-2.13-.13-3-.17c-5.14-.32-3.92-.87-7.29-.52s-10.19.22-10.19.22l-4.41,2.59s-10.28-.62-18.5-1.88h0c-8.22-1.26-5.32-2-7.45-6h0l4.17-5.14,1.48-1.83.09-.07a64.7,64.7,0,0,0,7.71-6.71c4.24-4.28,10.68-3.68,10.68-3.68a36.73,36.73,0,0,1,10.4-2.37c6.73-.71,7.48-1.64,7.48-1.64a91.31,91.31,0,0,0,13.59-4.41c9-3.5,10.39-2.37,10.39-2.37l9.46-3.12a34.07,34.07,0,0,0,7.86-2.1c4.5-1.75,6.74-.71,9.17-1.82s4.13-1.28,8.42-.88a21.6,21.6,0,0,1,6.54,1.44s5.72-2.3,6.84-3.7,10.11-1.06,10.11-1.06l4.46.19,10.76,2.89s5.87,3.21,8.84,7.16a3.93,3.93,0,0,1,.44.76C658.46,98,652.59,102.72,652.59,102.72ZM284.41,1044.39h0c-1.56,1.3-4.66-1.21-4.66-1.21l-15.35-8.32s-6.28-3-8.42-4.17-.07-3.73,1.43-5.59a1.23,1.23,0,0,1,.76-.44c2.12-.44,6.59,2.79,6.59,2.79l5.09-.25,5.07-.26h0l6.83,5.52s3.46,3.33,4.63,6.33h0C287.54,1041.79,286,1043.09,284.41,1044.39Z"/><path class="cls-4" d="M620.4,108.23c13.27.73,12.52,1.66,16.64.38s15.56-5.89,15.56-5.89,5.86-4.73,4.14-8.57a3.93,3.93,0,0,0-.44-.76c-3-3.94-8.84-7.15-8.84-7.15L636.7,83.35l-4.46-.2s-9-.33-10.1,1.07-6.85,3.69-6.85,3.69a21.9,21.9,0,0,0-6.54-1.44c-4.29-.4-6-.22-8.41.89s-4.68.06-9.18,1.81a33.59,33.59,0,0,1-7.86,2.11l-9.46,3.12s-1.4-1.13-10.39,2.37a92.49,92.49,0,0,1-13.59,4.41s-.75.93-7.49,1.63A36.75,36.75,0,0,0,532,105.18s-6.45-.6-10.68,3.68a64,64,0,0,1-7.72,6.71l-.08.06L512,117.47l-4.16,5.14c2.11,4-.78,4.76,7.44,6s18.49,1.89,18.49,1.89l4.42-2.59s6.82.13,10.19-.22,2.15.2,7.28.51l3,.18,2.14.13s1.17-.29,2.69-.72a31,31,0,0,0,6.66-2.49c.53-.35.64-.39.73-.39a.33.33,0,0,1,.1,0c.31,0,1.35-.39,9.69-5.72L595.06,110h0L597,110l3.58-.1s4.85,1.61,12.34,0c1.87-.41,2.45-.76,2.47-1s-1.23-.71-1.2-.82S615.37,108,620.4,108.23Z"/><path class="cls-4" d="M620.4,108.23c13.27.73,12.52,1.66,16.64.38s15.56-5.89,15.56-5.89,5.86-4.73,4.14-8.57a3.93,3.93,0,0,0-.44-.76c-3-3.94-8.84-7.15-8.84-7.15L636.7,83.35l-4.46-.2s-9-.33-10.1,1.07-6.85,3.69-6.85,3.69a21.9,21.9,0,0,0-6.54-1.44c-4.29-.4-6-.22-8.41.89s-4.68.06-9.18,1.81a33.59,33.59,0,0,1-7.86,2.11l-9.46,3.12s-1.4-1.13-10.39,2.37a92.49,92.49,0,0,1-13.59,4.41s-.75.93-7.49,1.63A36.75,36.75,0,0,0,532,105.18s-6.45-.6-10.68,3.68a64,64,0,0,1-7.72,6.71l-.08.06L512,117.47l-4.16,5.14c2.11,4-.78,4.76,7.44,6s18.49,1.89,18.49,1.89l4.42-2.59s6.82.13,10.19-.22,2.15.2,7.28.51l3,.18,2.14.13s1.17-.29,2.69-.72a31,31,0,0,0,6.66-2.49c.53-.35.64-.39.73-.39a.33.33,0,0,1,.1,0c.31,0,1.35-.39,9.69-5.72L595.06,110h0L597,110l3.58-.1s4.85,1.61,12.34,0c1.87-.41,2.45-.76,2.47-1s-1.23-.71-1.2-.82S615.37,108,620.4,108.23Z"/><path class="cls-4" d="M548.4,127.71c-3.37.35-10.19.22-10.19.22l-4.42,2.59s-10.28-.62-18.49-1.89-5.33-2-7.44-6h0c2.13,4-.77,4.77,7.45,6h0c8.22,1.26,18.5,1.88,18.5,1.88l4.41-2.59s6.82.14,10.19-.22,2.15.2,7.29.52l3,.17-3-.18C550.55,127.91,551.76,127.36,548.4,127.71Z"/><path class="cls-6" d="M548.4,127.71c-3.37.35-10.19.22-10.19.22l-4.42,2.59s-10.28-.62-18.49-1.89-5.33-2-7.44-6h0c2.13,4-.77,4.77,7.45,6h0c8.22,1.26,18.5,1.88,18.5,1.88l4.41-2.59s6.82.14,10.19-.22,2.15.2,7.29.52l3,.17-3-.18C550.55,127.91,551.76,127.36,548.4,127.71Z"/><path class="cls-4" d="M570.18,125.32a31,31,0,0,1-6.66,2.49,31.38,31.38,0,0,0,6.67-2.48c.51-.35.63-.4.72-.4C570.82,124.93,570.71,125,570.18,125.32Z"/><path class="cls-6" d="M570.18,125.32a31,31,0,0,1-6.66,2.49,31.38,31.38,0,0,0,6.67-2.48c.51-.35.63-.4.72-.4C570.82,124.93,570.71,125,570.18,125.32Z"/><path class="cls-4" d="M580.7,119.21c-8.34,5.33-9.38,5.71-9.69,5.72.3,0,1.31-.36,9.69-5.72L595.06,110h0Z"/><path class="cls-6" d="M580.7,119.21c-8.34,5.33-9.38,5.71-9.69,5.72.3,0,1.31-.36,9.69-5.72L595.06,110h0Z"/><path class="cls-4" d="M513.59,115.57l-.09.07L512,117.47l1.49-1.84Z"/><path class="cls-6" d="M513.59,115.57l-.09.07L512,117.47l1.49-1.84Z"/><path class="cls-4" d="M652.6,102.72s-11.44,4.6-15.56,5.89-3.37.35-16.64-.38c-5-.28-6.24-.35-6.22-.24,0-.1,1.29,0,6.22.24,13.27.73,12.52,1.67,16.64.38s15.55-5.89,15.55-5.89,5.87-4.73,4.15-8.57C658.46,98,652.6,102.72,652.6,102.72Z"/><path class="cls-6" d="M652.6,102.72s-11.44,4.6-15.56,5.89-3.37.35-16.64-.38c-5-.28-6.24-.35-6.22-.24,0-.1,1.29,0,6.22.24,13.27.73,12.52,1.67,16.64.38s15.55-5.89,15.55-5.89,5.87-4.73,4.15-8.57C658.46,98,652.6,102.72,652.6,102.72Z"/><path class="cls-4" d="M612.91,109.86c-7.49,1.64-12.34,0-12.34,0L597,110l3.58-.1s4.86,1.62,12.35,0c1.88-.41,2.45-.77,2.46-1.06C615.36,109.1,614.78,109.45,612.91,109.86Z"/><path class="cls-6" d="M612.91,109.86c-7.49,1.64-12.34,0-12.34,0L597,110l3.58-.1s4.86,1.62,12.35,0c1.88-.41,2.45-.77,2.46-1.06C615.36,109.1,614.78,109.45,612.91,109.86Z"/><path class="cls-4" d="M99,889.1s11.2,3.94,17.67,6.09l7,1.53L129,899l3.21,3.64h0l-6.23.09-2.51,3.1-.8,8.59,8.68,7a16.33,16.33,0,0,1,2.89,2.9,23.22,23.22,0,0,1,2.43,4.49c.21.47.43,1,.64,1.47,1.26,3,2.43,6.15,2.43,6.15a40.45,40.45,0,0,1,1.95,7.74c.35,3.37,6.2,5,6.2,5L164,962.28l7.35-.2,3.72,3,5.73.53,6.12-1.21,3.72,3,5.49-1.71,9.22,1.3,4,.15c4,.15,5-1.09,5-1.09l2.36.27,8,.91,4.19-14.06s-4.2-7.5-8.66-12.14a42.25,42.25,0,0,0-8.68-7l7-8.69s7.59,2,12.2,2.69a7.86,7.86,0,0,1,2.43.67c1.41.74.8,1.68.7,1.83l2.1-1.34c2.13-1.36,12.12-3.55,16.49-5.14,1.64-.6,2.49-.39,2.9.1.7.81.21,2.41.21,2.42l3.09,2.5a47.47,47.47,0,0,0,15.8,4.58,10.08,10.08,0,0,1,3.94.88c1.59,1-.5,2.36,1.16,3.58a4.63,4.63,0,0,0,1.1.56,33.81,33.81,0,0,0,7.63,2.07l6.2-.11,8.6.8c2.86.26,10,2.92,10,2.92a42,42,0,0,0,9.1.18,4,4,0,0,1,2.71.38c1,.7.45,2,.41,2.13l10.35-3.92,12.55-15.51,11.82-7h0s6.76,5.6,13,10.55,8.28,3.74,9.13,6.48,6.14,5,6.2,5l24.19-7.11s3.54-4.32,14.92-9.48c4-1.83,5.2-2.36,5.22-2.41a12.13,12.13,0,0,1-1.91.54c-.17,0,0-.25.94-.85,4.26-2.72,3.64-3.22,10-7.29l6.09-17.67s-1.95-7.73,2.89-10S506.09,886,506.09,886l10.4-9,2.28-.71,8.72-2.72,11.69,3.31,1.59-.52,13.78-4.5.36-.11,2.38-.74a10.13,10.13,0,0,1,2.71-.1c6.4.31,20.84,2.73,20.84,2.73s3.2-1.62,8-3.84c10.25-4.72,27.88-12.17,38.25-12.94l.18,0c.47,0,1-.08,1.42-.14l.73-.11.68-.1c14.11-2.52,26.8-16,28.68-18.28,2-2.48,33-29.77,33-29.77l3.52-4.34s11.73-9,15.37-12.21,11.4-10.28,16.16-13.61a22.79,22.79,0,0,0,7-8.69s27.83-48.32,26.48-93.57c0-.71-.06-1.42-.11-2.12-3.35-44.43-69.18-84.8-69.18-84.8s-13.29-7.68-15.65-8.57-5.23-1.15-8.72-1.92-14.08.92-14.08.92L648.29,576h0l-1.76-3.11-8-14-8.11-12.27-.67-1-6.67-15.28-3-7-2-7.79-3.71-14.31a16,16,0,0,1-1.86-2.25c-1.86-2.69-4-7.42-.8-12.23,4.91-7.32,49.37-43.2,49.37-43.2s3.07-13.95,3.59-17.12,0,0,.23-6,4.78-19.22,7.7-26.62c.44-1.15.85-2.13,1.23-3,1.87-4.44,3.25-6.78,7-13.75l1.41-2.66c5.66-10.82,3.15-7.72,7.17-12.68s5.59-6.26,9.1-10.6a86.88,86.88,0,0,1,10-10.41c4.13-3.84,9-9.17,12.4-11.52a33.54,33.54,0,0,1,7-3.57s6.38-4.07,8.87-4.62S747,313.4,747,313.4l28.94-24.32c18.41-57,29-42.21,51.68-75.23,22.53-32.87,25-42.27,25-42.35L842,158.32l-3.6-4.48a28.56,28.56,0,0,1-6-4.9c-2.88-3.1-15.35-12.43-15.35-12.43l-5.7-1.52s-3.72-3-6.24-2.75-4.59.9-6.74.7-2.7-1.42-6.91-1a138.39,138.39,0,0,1-14.4.66,46.26,46.26,0,0,0-5.52.15c-4.58.91-5.13-.31-8.88.51s-8.13-.42-12.89-1.19-5-2.46-9.44-.71c-1.6.62-2,.68-2,.62s.06-.12.06-.15-.5.23-2.55,1.27c-5.26,2.68-2,1.49-5.25,2.68s-2.15-.2-6.19,1.93a29.91,29.91,0,0,1-9.12,2.71s-17.33-3.34-19.66-5.22-1.08-6.27-9.32-3.7-11.55,5.28-14.49,6.75c-1.11.55-1.32.3-1.34,0a3.09,3.09,0,0,1,0-.4c0-.19-.19.05-1.66,1.86a2.11,2.11,0,0,0-.57,1.33c.09,1.55,3.38,1.81,3.3,2.06s-1.45.31-6.12.8c-5.07.53-8,.66-10,.71a30,30,0,0,0-9.37,1.34c-7.87,2.11-4,2.13-11.7,2.08s-7.58.81-10.19.22.33-1.26-6.75-1.61-5-1-12.77-1.87-7.09-2.66-14.29-2.33c-1.59.08-2-.05-2-.26.14-.37,2.09-1,2.24-1.11,0-.06-1.63.32-7.49,1.7-16.19,3.83-11.32,1.62-16.19,3.83s-18.33-.2-46.56,30.86l-28.23,31s-11.15,3.3-14.33,5.34-4.12,1.29-7.78,3-11.12-.54-11.12-.54l-62.66,14s-9.72-.68-13.08-.32-4.73-1.77-11.73,1.8-16,4.51-16,4.51L337.59,233s-7.5,4.19-10.64,6.79-13.14,9.9-13.14,9.9a105.53,105.53,0,0,1-9.75,4.43c-2.75.85-7.74,1.95-7.74,1.95s-4.49.47-7.12,2.45,1.21,6.11-5,6.2-12.12,3.54-12.12,3.54-6.73.71-8.24,2.57-.26,2.87-4,5-3-1.39-12,9.78a8.42,8.42,0,0,0-2.26,5.59c.34,7.12,14.14,10.16,14.14,10.16l18.39,7.72,7.27,15.12s.94,8.91.88,12.74a3.94,3.94,0,0,1-.22,1.68c-.75.93-3.93,11.19-4.25,13.5a4.56,4.56,0,0,0,0,1.09,13.25,13.25,0,0,1,.46,2.65,7.34,7.34,0,0,1-.4,1.93,71.31,71.31,0,0,0-2,8.16s-7.51,25.75-8.34,28.68-7.39,26.88-8.85,31.85.49,1.94-1.81,9.84-1.52,4.42-3.37,11.14A103.32,103.32,0,0,1,254,458l-1.82,9.74c0-.18.07-.28.07-.19s-.09,1-.51,4c-1,6.92-1.62,9-1.94,11.27s.53,5.06-3.64,14-4.08,4.4-6.75,14-4.46,16.93-4.46,16.93-.7,1.49-3,6.27-2.72,6.53-3.86,9.2-.09,4.55-2.6,7.65l-2.51,3.1s-2.76,3.41-2.44,1.11-1.86-1.51-.58-8.17,3.46-15.68,3.46-15.68-.31-.25.53-5.73,0-5.67,1.26-12.34c1.21-6.24.57-6.31,1.74-9.93l.26-.79c.11-.3.19-.6.29-.9a44.77,44.77,0,0,0,1.69-7.24,46.53,46.53,0,0,0,1.59-6.41c.52-3.17,1.62-9,1.62-9s.7-4.05,1.61-9c.17-.92.35-1.7.53-2.39v0c.78-2.95,1.64-4.29,2.53-9,.92-4.89.4-4.38,1.13-6.76.13-.44.3-1,.54-1.66,1.47-4.27,2.53-7.42,2.6-7.63,0,0-.67,1.1,0-1.13.29-1,.86-2.75,1.89-5.61,3.22-8.93,2.32-5.53,3.23-8.89l.06-.24c.88-3.27.12-2.17,1-6.45.15-.69.33-1.51.58-2.53.52-2.11.9-3.5,1.19-4.49l.06-.24a.5.5,0,0,0,0-.13,38.89,38.89,0,0,0,1.19-3.9,19.17,19.17,0,0,1,.69-2.35c.61-1.74,1.55-3.75,3.12-7.42l1.16-2.74c.78-1.83.64-1.54,2.69-6.45.34-.82.65-1.54.94-2.17,1.72-3.76,2.55-4.52,3.46-6.92.15-.4.3-.84.46-1.35.92-3-.46-1.11.63-3.65.42-1,1.21-2.64,2.67-5.51l5.17-10.19a4.69,4.69,0,0,0,2.26-2.79c.47-1.55,1.57-1.71,1.81-3.22a6.26,6.26,0,0,0-.1-2.05,5.43,5.43,0,0,1-.16-1.57c0-.3.17-.16.2-.2a16.19,16.19,0,0,0-.7-1.85,5.3,5.3,0,0,1-.5-1.54c0-.24.24.06.26,0s-.3-.57-1.3-2.31c-2.78-4.81-4-5.81-5.87-7.32s-4.54-2.64-6.65-3.84a24.69,24.69,0,0,0-5.6-2s-4.53-2.64-6.84-3-5-1.46-9.89-2.36-8-.86-10.65-1.43-4.48-2.09-8.15-2-2.8-2.26-11.53-1.62-9,.38-12.85,1.92a47.69,47.69,0,0,1-5.1,1.85s-9.71,5.66-13.21,7.45-18.77,2.25-19.78,3.49-5,3.65-8.08,6.81-3.19,2-8.21,8.24-3.46,4.91-6.78,8.38-5.19,2-4.78,5.89a6.34,6.34,0,0,0,.47,1.94c.13.3.26.51.36.73.29.68.24,1.47-1.12,5.3C126.62,380,127.38,379.1,127,386c-.25,4.1-.24,6.75-.3,9a39.4,39.4,0,0,1-.28,4.36c0,.07,0,.13,0,.19-.44,3.57-.4,4.15-1.33,5.92a8.43,8.43,0,0,0-1,2.26A2.72,2.72,0,0,0,125,410a31.48,31.48,0,0,0,5,4s5,4,6.39,4.15,3.92,2.14,5.47,3.39,3.43.21,4.27,5.51a97,97,0,0,1,.6,13.84c-.14,1.79-.33,3.58-.57,5.36v.08c-.12.86-.24,1.72-.38,2.57l-.18,1c-.09.56-.19,1.12-.29,1.67h0c-.12.55-.19.94-.23,1.24-.19,1.32.26.59-.05,1.89-.17.71-.57,2.05-1.45,4.72-.77,2.23-1.44,4.5-2,6.79s-1,4.57-1.37,6.89c0,0,1.91-2.36.92,4.73,0,.19,0,.38-.08.58-1.16,7.79-1.67,8.4-4.27,16.06s-3.31,11.7-4.55,10.69-4-14-4-14-1.36-2.12-.27-7.91c.28-1.45.64-3.06,1-4.64,1.16-4.7,2.57-9.25,2.6-9.37A39.72,39.72,0,0,0,130,457.71a56,56,0,0,1-2.8-10.49,50.63,50.63,0,0,0-2.63-8.8s-5.28-4.27-5.76-6.21c-.33-1.34-.66,1.24-.68.9,0-.11,0-.83.19-2.85.13-1.68.17-3.07.15-4.23,0-3.2-.45-4.77-.4-6.23h0v-.16c0-1.62-.44,1.13,0-5.49,0-.4,0-.76.07-1.1.08-1.24.16-2.15.22-2.86.21-2.48.15-2.39-.93-4.77a52.45,52.45,0,0,1-2.39-6.56s-3.82-6.69-4.37-9.19-3.59-4.44-5.94-7.88-7.75-17.06-7.75-17.06-.38,1.74-.6-3.06c-.21-4.51-2-5.35-2.08-8.26,0-.2,0-.4,0-.62.21-3.43,0-3.12.79-6a6.54,6.54,0,0,0,.27-1.34c0-.34-.14-.27-.13-.37a7.4,7.4,0,0,1,.68-1.22c1.44-2.41,10.4-26.63,10.5-26.91L103,312.13l-2.21-4.87h0s0-5.12,1.93-8.72,3.39-5.46,5.16-10.19,3,1.39,6-7.44,3.84-8.54,5.52-13.16,4.41-.37,7-8.58,7.62-3.07,8-9.92a11.46,11.46,0,0,0,0-1.56c-.2-2.46-1.49-1.15-1.5-1.53,0-.2.4-1,1.91-3.77,4.29-7.82,2.82,2.87,11.16-13.78s10.47-18,12.86-22.22a82.49,82.49,0,0,1,6.41-9.19s2.25-.24,4-5,4,.14,5.53-6.83-1-3.87,2.92-10,4.26-2.72,7.53-9.3,6.4-8.18,6.4-8.18l3.23-11.26A579.19,579.19,0,0,0,15,448.76l-.24,1q-2.22,9.71-4.13,19.53c-.14.7-.27,1.41-.41,2.11q-1.8,9.51-3.29,19.12c-.13.8-.25,1.6-.37,2.4-.31,2.06-.62,4.11-.91,6.18,0,.19,0,.39-.08.58Q4.68,506,3.94,512.32l-.24,2.15c-.24,2.11-.48,4.23-.69,6.36l-.09.93Q2.29,528,1.8,534.34l-.15,1.88q-.24,3.18-.45,6.38c0,.61-.07,1.21-.1,1.81C.87,548.2.67,552,.52,555.79c0,.89-.08,1.78-.11,2.67Q.31,561.23.23,564c0,1.39-.07,2.77-.1,4.16,0,1.78-.07,3.57-.09,5.36,0,2.65,0,5.29,0,7.94,0,.93,0,1.86,0,2.78,0,3,.05,6,.12,9a2.18,2.18,0,0,0,0,.25A582.32,582.32,0,0,0,52.37,821.3c.51,1.1,1,2.21,1.52,3.3.39.84.79,1.68,1.18,2.51q10.77,22.83,23.42,44.54Z"/><path class="cls-4" d="M99,889.1s11.2,3.94,17.67,6.09l7,1.53L129,899l3.21,3.64h0l-6.23.09-2.51,3.1-.8,8.59,8.68,7a16.33,16.33,0,0,1,2.89,2.9,23.22,23.22,0,0,1,2.43,4.49c.21.47.43,1,.64,1.47,1.26,3,2.43,6.15,2.43,6.15a40.45,40.45,0,0,1,1.95,7.74c.35,3.37,6.2,5,6.2,5L164,962.28l7.35-.2,3.72,3,5.73.53,6.12-1.21,3.72,3,5.49-1.71,9.22,1.3,4,.15c4,.15,5-1.09,5-1.09l2.36.27,8,.91,4.19-14.06s-4.2-7.5-8.66-12.14a42.25,42.25,0,0,0-8.68-7l7-8.69s7.59,2,12.2,2.69a7.86,7.86,0,0,1,2.43.67c1.41.74.8,1.68.7,1.83l2.1-1.34c2.13-1.36,12.12-3.55,16.49-5.14,1.64-.6,2.49-.39,2.9.1.7.81.21,2.41.21,2.42l3.09,2.5a47.47,47.47,0,0,0,15.8,4.58,10.08,10.08,0,0,1,3.94.88c1.59,1-.5,2.36,1.16,3.58a4.63,4.63,0,0,0,1.1.56,33.81,33.81,0,0,0,7.63,2.07l6.2-.11,8.6.8c2.86.26,10,2.92,10,2.92a42,42,0,0,0,9.1.18,4,4,0,0,1,2.71.38c1,.7.45,2,.41,2.13l10.35-3.92,12.55-15.51,11.82-7h0s6.76,5.6,13,10.55,8.28,3.74,9.13,6.48,6.14,5,6.2,5l24.19-7.11s3.54-4.32,14.92-9.48c4-1.83,5.2-2.36,5.22-2.41a12.13,12.13,0,0,1-1.91.54c-.17,0,0-.25.94-.85,4.26-2.72,3.64-3.22,10-7.29l6.09-17.67s-1.95-7.73,2.89-10S506.09,886,506.09,886l10.4-9,2.28-.71,8.72-2.72,11.69,3.31,1.59-.52,13.78-4.5.36-.11,2.38-.74a10.13,10.13,0,0,1,2.71-.1c6.4.31,20.84,2.73,20.84,2.73s3.2-1.62,8-3.84c10.25-4.72,27.88-12.17,38.25-12.94l.18,0c.47,0,1-.08,1.42-.14l.73-.11.68-.1c14.11-2.52,26.8-16,28.68-18.28,2-2.48,33-29.77,33-29.77l3.52-4.34s11.73-9,15.37-12.21,11.4-10.28,16.16-13.61a22.79,22.79,0,0,0,7-8.69s27.83-48.32,26.48-93.57c0-.71-.06-1.42-.11-2.12-3.35-44.43-69.18-84.8-69.18-84.8s-13.29-7.68-15.65-8.57-5.23-1.15-8.72-1.92-14.08.92-14.08.92L648.29,576h0l-1.76-3.11-8-14-8.11-12.27-.67-1-6.67-15.28-3-7-2-7.79-3.71-14.31a16,16,0,0,1-1.86-2.25c-1.86-2.69-4-7.42-.8-12.23,4.91-7.32,49.37-43.2,49.37-43.2s3.07-13.95,3.59-17.12,0,0,.23-6,4.78-19.22,7.7-26.62c.44-1.15.85-2.13,1.23-3,1.87-4.44,3.25-6.78,7-13.75l1.41-2.66c5.66-10.82,3.15-7.72,7.17-12.68s5.59-6.26,9.1-10.6a86.88,86.88,0,0,1,10-10.41c4.13-3.84,9-9.17,12.4-11.52a33.54,33.54,0,0,1,7-3.57s6.38-4.07,8.87-4.62S747,313.4,747,313.4l28.94-24.32c18.41-57,29-42.21,51.68-75.23,22.53-32.87,25-42.27,25-42.35L842,158.32l-3.6-4.48a28.56,28.56,0,0,1-6-4.9c-2.88-3.1-15.35-12.43-15.35-12.43l-5.7-1.52s-3.72-3-6.24-2.75-4.59.9-6.74.7-2.7-1.42-6.91-1a138.39,138.39,0,0,1-14.4.66,46.26,46.26,0,0,0-5.52.15c-4.58.91-5.13-.31-8.88.51s-8.13-.42-12.89-1.19-5-2.46-9.44-.71c-1.6.62-2,.68-2,.62s.06-.12.06-.15-.5.23-2.55,1.27c-5.26,2.68-2,1.49-5.25,2.68s-2.15-.2-6.19,1.93a29.91,29.91,0,0,1-9.12,2.71s-17.33-3.34-19.66-5.22-1.08-6.27-9.32-3.7-11.55,5.28-14.49,6.75c-1.11.55-1.32.3-1.34,0a3.09,3.09,0,0,1,0-.4c0-.19-.19.05-1.66,1.86a2.11,2.11,0,0,0-.57,1.33c.09,1.55,3.38,1.81,3.3,2.06s-1.45.31-6.12.8c-5.07.53-8,.66-10,.71a30,30,0,0,0-9.37,1.34c-7.87,2.11-4,2.13-11.7,2.08s-7.58.81-10.19.22.33-1.26-6.75-1.61-5-1-12.77-1.87-7.09-2.66-14.29-2.33c-1.59.08-2-.05-2-.26.14-.37,2.09-1,2.24-1.11,0-.06-1.63.32-7.49,1.7-16.19,3.83-11.32,1.62-16.19,3.83s-18.33-.2-46.56,30.86l-28.23,31s-11.15,3.3-14.33,5.34-4.12,1.29-7.78,3-11.12-.54-11.12-.54l-62.66,14s-9.72-.68-13.08-.32-4.73-1.77-11.73,1.8-16,4.51-16,4.51L337.59,233s-7.5,4.19-10.64,6.79-13.14,9.9-13.14,9.9a105.53,105.53,0,0,1-9.75,4.43c-2.75.85-7.74,1.95-7.74,1.95s-4.49.47-7.12,2.45,1.21,6.11-5,6.2-12.12,3.54-12.12,3.54-6.73.71-8.24,2.57-.26,2.87-4,5-3-1.39-12,9.78a8.42,8.42,0,0,0-2.26,5.59c.34,7.12,14.14,10.16,14.14,10.16l18.39,7.72,7.27,15.12s.94,8.91.88,12.74a3.94,3.94,0,0,1-.22,1.68c-.75.93-3.93,11.19-4.25,13.5a4.56,4.56,0,0,0,0,1.09,13.25,13.25,0,0,1,.46,2.65,7.34,7.34,0,0,1-.4,1.93,71.31,71.31,0,0,0-2,8.16s-7.51,25.75-8.34,28.68-7.39,26.88-8.85,31.85.49,1.94-1.81,9.84-1.52,4.42-3.37,11.14A103.32,103.32,0,0,1,254,458l-1.82,9.74c0-.18.07-.28.07-.19s-.09,1-.51,4c-1,6.92-1.62,9-1.94,11.27s.53,5.06-3.64,14-4.08,4.4-6.75,14-4.46,16.93-4.46,16.93-.7,1.49-3,6.27-2.72,6.53-3.86,9.2-.09,4.55-2.6,7.65l-2.51,3.1s-2.76,3.41-2.44,1.11-1.86-1.51-.58-8.17,3.46-15.68,3.46-15.68-.31-.25.53-5.73,0-5.67,1.26-12.34c1.21-6.24.57-6.31,1.74-9.93l.26-.79c.11-.3.19-.6.29-.9a44.77,44.77,0,0,0,1.69-7.24,46.53,46.53,0,0,0,1.59-6.41c.52-3.17,1.62-9,1.62-9s.7-4.05,1.61-9c.17-.92.35-1.7.53-2.39v0c.78-2.95,1.64-4.29,2.53-9,.92-4.89.4-4.38,1.13-6.76.13-.44.3-1,.54-1.66,1.47-4.27,2.53-7.42,2.6-7.63,0,0-.67,1.1,0-1.13.29-1,.86-2.75,1.89-5.61,3.22-8.93,2.32-5.53,3.23-8.89l.06-.24c.88-3.27.12-2.17,1-6.45.15-.69.33-1.51.58-2.53.52-2.11.9-3.5,1.19-4.49l.06-.24a.5.5,0,0,0,0-.13,38.89,38.89,0,0,0,1.19-3.9,19.17,19.17,0,0,1,.69-2.35c.61-1.74,1.55-3.75,3.12-7.42l1.16-2.74c.78-1.83.64-1.54,2.69-6.45.34-.82.65-1.54.94-2.17,1.72-3.76,2.55-4.52,3.46-6.92.15-.4.3-.84.46-1.35.92-3-.46-1.11.63-3.65.42-1,1.21-2.64,2.67-5.51l5.17-10.19a4.69,4.69,0,0,0,2.26-2.79c.47-1.55,1.57-1.71,1.81-3.22a6.26,6.26,0,0,0-.1-2.05,5.43,5.43,0,0,1-.16-1.57c0-.3.17-.16.2-.2a16.19,16.19,0,0,0-.7-1.85,5.3,5.3,0,0,1-.5-1.54c0-.24.24.06.26,0s-.3-.57-1.3-2.31c-2.78-4.81-4-5.81-5.87-7.32s-4.54-2.64-6.65-3.84a24.69,24.69,0,0,0-5.6-2s-4.53-2.64-6.84-3-5-1.46-9.89-2.36-8-.86-10.65-1.43-4.48-2.09-8.15-2-2.8-2.26-11.53-1.62-9,.38-12.85,1.92a47.69,47.69,0,0,1-5.1,1.85s-9.71,5.66-13.21,7.45-18.77,2.25-19.78,3.49-5,3.65-8.08,6.81-3.19,2-8.21,8.24-3.46,4.91-6.78,8.38-5.19,2-4.78,5.89a6.34,6.34,0,0,0,.47,1.94c.13.3.26.51.36.73.29.68.24,1.47-1.12,5.3C126.62,380,127.38,379.1,127,386c-.25,4.1-.24,6.75-.3,9a39.4,39.4,0,0,1-.28,4.36c0,.07,0,.13,0,.19-.44,3.57-.4,4.15-1.33,5.92a8.43,8.43,0,0,0-1,2.26A2.72,2.72,0,0,0,125,410a31.48,31.48,0,0,0,5,4s5,4,6.39,4.15,3.92,2.14,5.47,3.39,3.43.21,4.27,5.51a97,97,0,0,1,.6,13.84c-.14,1.79-.33,3.58-.57,5.36v.08c-.12.86-.24,1.72-.38,2.57l-.18,1c-.09.56-.19,1.12-.29,1.67h0c-.12.55-.19.94-.23,1.24-.19,1.32.26.59-.05,1.89-.17.71-.57,2.05-1.45,4.72-.77,2.23-1.44,4.5-2,6.79s-1,4.57-1.37,6.89c0,0,1.91-2.36.92,4.73,0,.19,0,.38-.08.58-1.16,7.79-1.67,8.4-4.27,16.06s-3.31,11.7-4.55,10.69-4-14-4-14-1.36-2.12-.27-7.91c.28-1.45.64-3.06,1-4.64,1.16-4.7,2.57-9.25,2.6-9.37A39.72,39.72,0,0,0,130,457.71a56,56,0,0,1-2.8-10.49,50.63,50.63,0,0,0-2.63-8.8s-5.28-4.27-5.76-6.21c-.33-1.34-.66,1.24-.68.9,0-.11,0-.83.19-2.85.13-1.68.17-3.07.15-4.23,0-3.2-.45-4.77-.4-6.23h0v-.16c0-1.62-.44,1.13,0-5.49,0-.4,0-.76.07-1.1.08-1.24.16-2.15.22-2.86.21-2.48.15-2.39-.93-4.77a52.45,52.45,0,0,1-2.39-6.56s-3.82-6.69-4.37-9.19-3.59-4.44-5.94-7.88-7.75-17.06-7.75-17.06-.38,1.74-.6-3.06c-.21-4.51-2-5.35-2.08-8.26,0-.2,0-.4,0-.62.21-3.43,0-3.12.79-6a6.54,6.54,0,0,0,.27-1.34c0-.34-.14-.27-.13-.37a7.4,7.4,0,0,1,.68-1.22c1.44-2.41,10.4-26.63,10.5-26.91L103,312.13l-2.21-4.87h0s0-5.12,1.93-8.72,3.39-5.46,5.16-10.19,3,1.39,6-7.44,3.84-8.54,5.52-13.16,4.41-.37,7-8.58,7.62-3.07,8-9.92a11.46,11.46,0,0,0,0-1.56c-.2-2.46-1.49-1.15-1.5-1.53,0-.2.4-1,1.91-3.77,4.29-7.82,2.82,2.87,11.16-13.78s10.47-18,12.86-22.22a82.49,82.49,0,0,1,6.41-9.19s2.25-.24,4-5,4,.14,5.53-6.83-1-3.87,2.92-10,4.26-2.72,7.53-9.3,6.4-8.18,6.4-8.18l3.23-11.26A579.19,579.19,0,0,0,15,448.76l-.24,1q-2.22,9.71-4.13,19.53c-.14.7-.27,1.41-.41,2.11q-1.8,9.51-3.29,19.12c-.13.8-.25,1.6-.37,2.4-.31,2.06-.62,4.11-.91,6.18,0,.19,0,.39-.08.58Q4.68,506,3.94,512.32l-.24,2.15c-.24,2.11-.48,4.23-.69,6.36l-.09.93Q2.29,528,1.8,534.34l-.15,1.88q-.24,3.18-.45,6.38c0,.61-.07,1.21-.1,1.81C.87,548.2.67,552,.52,555.79c0,.89-.08,1.78-.11,2.67Q.31,561.23.23,564c0,1.39-.07,2.77-.1,4.16,0,1.78-.07,3.57-.09,5.36,0,2.65,0,5.29,0,7.94,0,.93,0,1.86,0,2.78,0,3,.05,6,.12,9a2.18,2.18,0,0,0,0,.25A582.32,582.32,0,0,0,52.37,821.3c.51,1.1,1,2.21,1.52,3.3.39.84.79,1.68,1.18,2.51q10.77,22.83,23.42,44.54Z"/><path class="cls-4" d="M218.54,925.33l-7,8.69a42.25,42.25,0,0,1,8.68,7c4.46,4.64,8.66,12.14,8.66,12.14l-4.19,14.06h0l4.2-14.06s-4.19-7.5-8.65-12.14a42.92,42.92,0,0,0-8.69-7l7-8.68s7.59,2,12.2,2.69a7.64,7.64,0,0,1,2.42.66,7.86,7.86,0,0,0-2.43-.67C226.13,927.37,218.54,925.33,218.54,925.33Z"/><path class="cls-6" d="M218.54,925.33l-7,8.69a42.25,42.25,0,0,1,8.68,7c4.46,4.64,8.66,12.14,8.66,12.14l-4.19,14.06h0l4.2-14.06s-4.19-7.5-8.65-12.14a42.92,42.92,0,0,0-8.69-7l7-8.68s7.59,2,12.2,2.69a7.64,7.64,0,0,1,2.42.66,7.86,7.86,0,0,0-2.43-.67C226.13,927.37,218.54,925.33,218.54,925.33Z"/><path class="cls-4" d="M209.33,967.16l-4-.15-9.22-1.3-5.49,1.71-3.72-3-6.12,1.21-5.73-.53-3.72-3-7.35.2-16.13-13.06s-5.85-1.65-6.2-5a40.45,40.45,0,0,0-1.95-7.74s-1.17-3.2-2.43-6.15c1.26,3,2.43,6.15,2.43,6.15a40.45,40.45,0,0,1,1.95,7.74c.35,3.37,6.2,5,6.2,5L164,962.29l7.35-.21,3.72,3,5.73.53,6.12-1.21,3.72,3,5.5-1.71,9.21,1.3,4,.15c4,.15,5-1.1,5-1.1l2.36.27-2.36-.27S213.32,967.31,209.33,967.16Z"/><path class="cls-6" d="M209.33,967.16l-4-.15-9.22-1.3-5.49,1.71-3.72-3-6.12,1.21-5.73-.53-3.72-3-7.35.2-16.13-13.06s-5.85-1.65-6.2-5a40.45,40.45,0,0,0-1.95-7.74s-1.17-3.2-2.43-6.15c1.26,3,2.43,6.15,2.43,6.15a40.45,40.45,0,0,1,1.95,7.74c.35,3.37,6.2,5,6.2,5L164,962.29l7.35-.21,3.72,3,5.73.53,6.12-1.21,3.72,3,5.5-1.71,9.21,1.3,4,.15c4,.15,5-1.1,5-1.1l2.36.27-2.36-.27S213.32,967.31,209.33,967.16Z"/><polygon class="cls-4" points="539.18 876.88 540.77 876.37 539.18 876.88 539.18 876.88"/><polygon class="cls-6" points="539.18 876.88 540.77 876.37 539.18 876.88 539.18 876.88"/><path class="cls-4" d="M249.3,413l-.06.24Z"/><path class="cls-6" d="M249.3,413l-.06.24Z"/><path class="cls-4" d="M146.06,446.34v0Z"/><path class="cls-6" d="M146.06,446.34v0Z"/><polygon class="cls-4" points="838.43 153.84 838.43 153.84 842.03 158.32 838.43 153.84"/><polygon class="cls-6" points="838.43 153.84 838.43 153.84 842.03 158.32 838.43 153.84"/><path class="cls-4" d="M145.5,449.88l.18-1Z"/><path class="cls-6" d="M145.5,449.88l.18-1Z"/><polygon class="cls-4" points="614.33 501.27 614.33 501.27 618.04 515.58 614.33 501.27"/><polygon class="cls-6" points="614.33 501.27 614.33 501.27 618.04 515.58 614.33 501.27"/><path class="cls-4" d="M627.13,856.86c-10.37.77-28,8.22-38.25,12.94C599.13,865.09,616.75,857.63,627.13,856.86Z"/><path class="cls-6" d="M627.13,856.86c-10.37.77-28,8.22-38.25,12.94C599.13,865.09,616.75,857.63,627.13,856.86Z"/><path class="cls-4" d="M131.32,921.45l-8.68-7,.8-8.59,2.51-3.1h0l-2.51,3.1-.79,8.59,8.68,7a16.32,16.32,0,0,1,2.89,2.89A16.33,16.33,0,0,0,131.32,921.45Z"/><path class="cls-6" d="M131.32,921.45l-8.68-7,.8-8.59,2.51-3.1h0l-2.51,3.1-.79,8.59,8.68,7a16.32,16.32,0,0,1,2.89,2.89A16.33,16.33,0,0,0,131.32,921.45Z"/><path class="cls-4" d="M629.46,856.59l-.73.11Z"/><path class="cls-6" d="M629.46,856.59l-.73.11Z"/><path class="cls-4" d="M252.46,924c-4.37,1.59-14.36,3.78-16.49,5.14l-2.1,1.34,0,0,2.13-1.36c2.13-1.35,12.11-3.54,16.48-5.13,1.64-.6,2.48-.4,2.9.09C255,923.65,254.1,923.44,252.46,924Z"/><path class="cls-6" d="M252.46,924c-4.37,1.59-14.36,3.78-16.49,5.14l-2.1,1.34,0,0,2.13-1.36c2.13-1.35,12.11-3.54,16.48-5.13,1.64-.6,2.48-.4,2.9.09C255,923.65,254.1,923.44,252.46,924Z"/><path class="cls-4" d="M274.83,348.57a16.19,16.19,0,0,1,.7,1.85,9,9,0,0,0-.7-1.87,6.51,6.51,0,0,1-.5-1.52A5.3,5.3,0,0,0,274.83,348.57Z"/><path class="cls-6" d="M274.83,348.57a16.19,16.19,0,0,1,.7,1.85,9,9,0,0,0-.7-1.87,6.51,6.51,0,0,1-.5-1.52A5.3,5.3,0,0,0,274.83,348.57Z"/><path class="cls-4" d="M134.1,359.39c3.32-3.47,1.75-2.17,6.78-8.38s5.14-5.08,8.21-8.24,7.08-5.56,8.08-6.81,16.28-1.71,19.78-3.49S190.16,325,190.16,325a47.69,47.69,0,0,0,5.1-1.85c3.82-1.54,4.13-1.29,12.85-1.92s7.85,1.73,11.53,1.62,5.53,1.41,8.15,2,5.73.53,10.65,1.43,7.59,2,9.89,2.36,6.84,3,6.84,3a24.69,24.69,0,0,1,5.6,2c2.11,1.2,4.78,2.33,6.65,3.84s3.09,2.51,5.87,7.32c1,1.74,1.28,2.22,1.3,2.31a23.14,23.14,0,0,0-1.3-2.32c-2.77-4.81-4-5.82-5.88-7.33s-4.53-2.64-6.64-3.83a24.69,24.69,0,0,0-5.6-2s-4.54-2.64-6.84-3-5-1.46-9.89-2.36-8-.86-10.66-1.44-4.47-2.08-8.15-2-2.79-2.26-11.52-1.62-9,.38-12.85,1.91a45.67,45.67,0,0,1-5.1,1.86s-9.71,5.66-13.21,7.44-18.78,2.26-19.78,3.5-5,3.65-8.08,6.81-3.19,2-8.22,8.24-3.45,4.9-6.78,8.37-5.18,2-4.77,5.89a6.14,6.14,0,0,0,.47,2,6.34,6.34,0,0,1-.47-1.94C128.91,361.35,130.77,362.86,134.1,359.39Z"/><path class="cls-6" d="M134.1,359.39c3.32-3.47,1.75-2.17,6.78-8.38s5.14-5.08,8.21-8.24,7.08-5.56,8.08-6.81,16.28-1.71,19.78-3.49S190.16,325,190.16,325a47.69,47.69,0,0,0,5.1-1.85c3.82-1.54,4.13-1.29,12.85-1.92s7.85,1.73,11.53,1.62,5.53,1.41,8.15,2,5.73.53,10.65,1.43,7.59,2,9.89,2.36,6.84,3,6.84,3a24.69,24.69,0,0,1,5.6,2c2.11,1.2,4.78,2.33,6.65,3.84s3.09,2.51,5.87,7.32c1,1.74,1.28,2.22,1.3,2.31a23.14,23.14,0,0,0-1.3-2.32c-2.77-4.81-4-5.82-5.88-7.33s-4.53-2.64-6.64-3.83a24.69,24.69,0,0,0-5.6-2s-4.54-2.64-6.84-3-5-1.46-9.89-2.36-8-.86-10.66-1.44-4.47-2.08-8.15-2-2.79-2.26-11.52-1.62-9,.38-12.85,1.91a45.67,45.67,0,0,1-5.1,1.86s-9.71,5.66-13.21,7.44-18.78,2.26-19.78,3.5-5,3.65-8.08,6.81-3.19,2-8.22,8.24-3.45,4.9-6.78,8.37-5.18,2-4.77,5.89a6.14,6.14,0,0,0,.47,2,6.34,6.34,0,0,1-.47-1.94C128.91,361.35,130.77,362.86,134.1,359.39Z"/><path class="cls-4" d="M129,373.25c1.36-3.83,1.41-4.62,1.12-5.3.28.67.22,1.48-1.13,5.29-2.41,6.78-1.65,5.84-2.07,12.7-.25,4.11-.24,6.77-.29,9,.06-2.27,0-4.92.3-9C127.38,379.1,126.62,380,129,373.25Z"/><path class="cls-6" d="M129,373.25c1.36-3.83,1.41-4.62,1.12-5.3.28.67.22,1.48-1.13,5.29-2.41,6.78-1.65,5.84-2.07,12.7-.25,4.11-.24,6.77-.29,9,.06-2.27,0-4.92.3-9C127.38,379.1,126.62,380,129,373.25Z"/><path class="cls-4" d="M275.49,352.19a6.26,6.26,0,0,1,.1,2.05,6.11,6.11,0,0,0-.1-2.07,6.09,6.09,0,0,1-.16-1.55A5.43,5.43,0,0,0,275.49,352.19Z"/><path class="cls-6" d="M275.49,352.19a6.26,6.26,0,0,1,.1,2.05,6.11,6.11,0,0,0-.1-2.07,6.09,6.09,0,0,1-.16-1.55A5.43,5.43,0,0,0,275.49,352.19Z"/><path class="cls-4" d="M126.36,399.53c-.44,3.57-.4,4.14-1.32,5.91a8.23,8.23,0,0,0-1,2.27,8.43,8.43,0,0,1,1-2.26C126,403.68,125.92,403.1,126.36,399.53Z"/><path class="cls-6" d="M126.36,399.53c-.44,3.57-.4,4.14-1.32,5.91a8.23,8.23,0,0,0-1,2.27,8.43,8.43,0,0,1,1-2.26C126,403.68,125.92,403.1,126.36,399.53Z"/><path class="cls-4" d="M263.05,379.6c-.16.51-.31.95-.46,1.35.15-.4.3-.85.46-1.37.92-2.95-.45-1.12.63-3.63C262.59,378.49,264,376.64,263.05,379.6Z"/><path class="cls-6" d="M263.05,379.6c-.16.51-.31.95-.46,1.35.15-.4.3-.85.46-1.37.92-2.95-.45-1.12.63-3.63C262.59,378.49,264,376.64,263.05,379.6Z"/><path class="cls-4" d="M249.34,412.9c.63-2.08.81-2.15,1.2-3.91a19,19,0,0,1,.68-2.34,19.17,19.17,0,0,0-.69,2.35A38.89,38.89,0,0,1,249.34,412.9Z"/><path class="cls-6" d="M249.34,412.9c.63-2.08.81-2.15,1.2-3.91a19,19,0,0,1,.68-2.34,19.17,19.17,0,0,0-.69,2.35A38.89,38.89,0,0,1,249.34,412.9Z"/><path class="cls-4" d="M246.38,427c0-.08,0-.16.07-.26.87-3.26.12-2.17,1-6.43-.91,4.28-.15,3.18-1,6.45Z"/><path class="cls-6" d="M246.38,427c0-.08,0-.16.07-.26.87-3.26.12-2.17,1-6.43-.91,4.28-.15,3.18-1,6.45Z"/><path class="cls-4" d="M145.2,451.56c-.12.55-.19.94-.23,1.24,0-.3.11-.69.23-1.24Z"/><path class="cls-6" d="M145.2,451.56c-.12.55-.19.94-.23,1.24,0-.3.11-.69.23-1.24Z"/><path class="cls-4" d="M255.5,396.49c.79-1.85.64-1.54,2.69-6.47.34-.81.65-1.52.94-2.15-.29.63-.6,1.35-.94,2.17C256.14,395,256.28,394.66,255.5,396.49Z"/><path class="cls-6" d="M255.5,396.49c.79-1.85.64-1.54,2.69-6.47.34-.81.65-1.52.94-2.15-.29.63-.6,1.35-.94,2.17C256.14,395,256.28,394.66,255.5,396.49Z"/><path class="cls-4" d="M116.64,895.19l7,1.54L129,899l3.21,3.63h0L129,899l-5.35-2.28-7-1.53C110.18,893,99,889.1,99,889.1L78.49,871.65h0L99,889.1S110.18,893,116.64,895.19Z"/><path class="cls-6" d="M116.64,895.19l7,1.54L129,899l3.21,3.63h0L129,899l-5.35-2.28-7-1.53C110.18,893,99,889.1,99,889.1L78.49,871.65h0L99,889.1S110.18,893,116.64,895.19Z"/><polygon class="cls-4" points="103.03 312.13 106.36 316.89 106.37 316.88 103.03 312.12 100.82 307.25 100.82 307.26 103.03 312.13"/><polygon class="cls-6" points="103.03 312.13 106.36 316.89 106.37 316.88 103.03 312.12 100.82 307.25 100.82 307.26 103.03 312.13"/><path class="cls-4" d="M96.32,361.65c.22,4.8.6,3.06.6,3.06s5.41,13.61,7.75,17.06,5.39,5.39,5.94,7.88,4.37,9.19,4.37,9.19a52.45,52.45,0,0,0,2.39,6.56c1.08,2.38,1.14,2.29.93,4.77.22-2.5.16-2.4-.93-4.78a52.45,52.45,0,0,1-2.39-6.56s-3.82-6.69-4.37-9.19-3.59-4.45-5.93-7.89-7.75-17.06-7.75-17.06-.39,1.74-.61-3.06c-.21-4.5-2-5.34-2.08-8.24C94.29,356.3,96.11,357.14,96.32,361.65Z"/><path class="cls-6" d="M96.32,361.65c.22,4.8.6,3.06.6,3.06s5.41,13.61,7.75,17.06,5.39,5.39,5.94,7.88,4.37,9.19,4.37,9.19a52.45,52.45,0,0,0,2.39,6.56c1.08,2.38,1.14,2.29.93,4.77.22-2.5.16-2.4-.93-4.78a52.45,52.45,0,0,1-2.39-6.56s-3.82-6.69-4.37-9.19-3.59-4.45-5.93-7.89-7.75-17.06-7.75-17.06-.39,1.74-.61-3.06c-.21-4.5-2-5.34-2.08-8.24C94.29,356.3,96.11,357.14,96.32,361.65Z"/><path class="cls-4" d="M95.31,345.39c0-.34-.12-.29-.13-.37C95.17,345.12,95.31,345.05,95.31,345.39Z"/><path class="cls-6" d="M95.31,345.39c0-.34-.12-.29-.13-.37C95.17,345.12,95.31,345.05,95.31,345.39Z"/><path class="cls-4" d="M258.66,929.06l-3.09-2.5h0l3.1,2.51a47.7,47.7,0,0,0,15.8,4.58,10.13,10.13,0,0,1,3.93.87,10.08,10.08,0,0,0-3.94-.88A47.47,47.47,0,0,1,258.66,929.06Z"/><path class="cls-6" d="M258.66,929.06l-3.09-2.5h0l3.1,2.51a47.7,47.7,0,0,0,15.8,4.58,10.13,10.13,0,0,1,3.93.87,10.08,10.08,0,0,0-3.94-.88A47.47,47.47,0,0,1,258.66,929.06Z"/><path class="cls-4" d="M241.3,442.61v0s-.68,1.14,0-1.11C240.63,443.71,241.27,442.65,241.3,442.61Z"/><path class="cls-6" d="M241.3,442.61v0s-.68,1.14,0-1.11C240.63,443.71,241.27,442.65,241.3,442.61Z"/><path class="cls-4" d="M118.43,426c0-3.21-.45-4.78-.39-6.24h0C118,421.26,118.39,422.83,118.43,426Z"/><path class="cls-6" d="M118.43,426c0-3.21-.45-4.78-.39-6.24h0C118,421.26,118.39,422.83,118.43,426Z"/><path class="cls-4" d="M118,419.62c0-1.65-.44,1.15,0-5.51,0-.39,0-.74.07-1.08,0,.34,0,.7-.07,1.1C117.6,420.75,118.08,418,118,419.62Z"/><path class="cls-6" d="M118,419.62c0-1.65-.44,1.15,0-5.51,0-.39,0-.74.07-1.08,0,.34,0,.7-.07,1.1C117.6,420.75,118.08,418,118,419.62Z"/><path class="cls-4" d="M128.08,491.1s2.79,13,4,14,1.95-3,4.55-10.69,3.11-8.27,4.27-16.06c0-.2.06-.39.08-.58,0,.18,0,.37-.08.57-1.17,7.78-1.67,8.4-4.27,16.05s-3.31,11.7-4.55,10.69-4-14-4-14-1.36-2.13-.26-7.92c.27-1.44.63-3,1-4.62-.4,1.58-.76,3.19-1,4.64C126.72,489,128.08,491.1,128.08,491.1Z"/><path class="cls-6" d="M128.08,491.1s2.79,13,4,14,1.95-3,4.55-10.69,3.11-8.27,4.27-16.06c0-.2.06-.39.08-.58,0,.18,0,.37-.08.57-1.17,7.78-1.67,8.4-4.27,16.05s-3.31,11.7-4.55,10.69-4-14-4-14-1.36-2.13-.26-7.92c.27-1.44.63-3,1-4.62-.4,1.58-.76,3.19-1,4.64C126.72,489,128.08,491.1,128.08,491.1Z"/><path class="cls-4" d="M118.77,432.21c.48,1.94,5.76,6.21,5.76,6.21a50.63,50.63,0,0,1,2.63,8.8,56,56,0,0,0,2.8,10.49,39.72,39.72,0,0,1,1.49,11.47h0A39.4,39.4,0,0,0,130,457.69a55.79,55.79,0,0,1-2.8-10.49,49.45,49.45,0,0,0-2.63-8.8s-5.27-4.27-5.76-6.2c-.33-1.32-.65,1.16-.68.91C118.11,433.45,118.44,430.87,118.77,432.21Z"/><path class="cls-6" d="M118.77,432.21c.48,1.94,5.76,6.21,5.76,6.21a50.63,50.63,0,0,1,2.63,8.8,56,56,0,0,0,2.8,10.49,39.72,39.72,0,0,1,1.49,11.47h0A39.4,39.4,0,0,0,130,457.69a55.79,55.79,0,0,1-2.8-10.49,49.45,49.45,0,0,0-2.63-8.8s-5.27-4.27-5.76-6.2c-.33-1.32-.65,1.16-.68.91C118.11,433.45,118.44,430.87,118.77,432.21Z"/><path class="cls-4" d="M144.92,454.69c-.17.72-.57,2.05-1.44,4.71q-1.17,3.35-2,6.8c.57-2.29,1.24-4.56,2-6.79C144.35,456.74,144.75,455.4,144.92,454.69Z"/><path class="cls-6" d="M144.92,454.69c-.17.72-.57,2.05-1.44,4.71q-1.17,3.35-2,6.8c.57-2.29,1.24-4.56,2-6.79C144.35,456.74,144.75,455.4,144.92,454.69Z"/><path class="cls-4" d="M134.44,247.68c-.19-2.43-1.44-1.22-1.5-1.53C133,246.53,134.24,245.22,134.44,247.68Z"/><path class="cls-6" d="M134.44,247.68c-.19-2.43-1.44-1.22-1.5-1.53C133,246.53,134.24,245.22,134.44,247.68Z"/><polygon class="cls-4" points="648.29 576.01 646.53 572.9 648.29 576.01 648.29 576.01"/><polygon class="cls-6" points="648.29 576.01 646.53 572.9 648.29 576.01 648.29 576.01"/><path class="cls-4" d="M733.9,769.59a22.79,22.79,0,0,1-7,8.69c-4.76,3.33-12.53,10.39-16.16,13.61s-15.37,12.21-15.37,12.21l-3.52,4.34s-31,27.29-33,29.77c-1.88,2.32-14.57,15.76-28.68,18.28,14.12-2.52,26.81-16,28.69-18.29,2-2.48,33-29.76,33-29.76l3.51-4.33s11.73-9,15.37-12.21,11.4-10.28,16.15-13.62a22.86,22.86,0,0,0,7-8.68s27.83-48.33,26.48-93.58c0-.71-.06-1.42-.11-2.12.05.7.09,1.41.11,2.12C761.73,721.27,733.9,769.59,733.9,769.59Z"/><path class="cls-6" d="M733.9,769.59a22.79,22.79,0,0,1-7,8.69c-4.76,3.33-12.53,10.39-16.16,13.61s-15.37,12.21-15.37,12.21l-3.52,4.34s-31,27.29-33,29.77c-1.88,2.32-14.57,15.76-28.68,18.28,14.12-2.52,26.81-16,28.69-18.29,2-2.48,33-29.76,33-29.76l3.51-4.33s11.73-9,15.37-12.21,11.4-10.28,16.15-13.62a22.86,22.86,0,0,0,7-8.68s27.83-48.33,26.48-93.58c0-.71-.06-1.42-.11-2.12.05.7.09,1.41.11,2.12C761.73,721.27,733.9,769.59,733.9,769.59Z"/><path class="cls-4" d="M557.29,871l-2.38.74,2.39-.74a10.05,10.05,0,0,1,2.7-.1A10.13,10.13,0,0,0,557.29,871Z"/><path class="cls-6" d="M557.29,871l-2.38.74,2.39-.74a10.05,10.05,0,0,1,2.7-.1A10.13,10.13,0,0,0,557.29,871Z"/><polygon class="cls-4" points="630.44 546.61 629.78 545.61 623.1 530.33 629.77 545.61 630.44 546.61"/><polygon class="cls-6" points="630.44 546.61 629.78 545.61 623.1 530.33 629.77 545.61 630.44 546.61"/><path class="cls-4" d="M234.5,467.63c.78-3,1.65-4.3,2.53-9,.92-4.88.4-4.38,1.13-6.74-.73,2.38-.21,1.87-1.13,6.76C236.14,463.34,235.28,464.68,234.5,467.63Z"/><path class="cls-6" d="M234.5,467.63c.78-3,1.65-4.3,2.53-9,.92-4.88.4-4.38,1.13-6.74-.73,2.38-.21,1.87-1.13,6.76C236.14,463.34,235.28,464.68,234.5,467.63Z"/><path class="cls-4" d="M427.45,926.08c-11.38,5.16-14.92,9.48-14.92,9.48l-24.19,7.11h0l24.19-7.11s3.55-4.31,14.93-9.48c4.32-2,5.35-2.43,5.21-2.41S431.48,924.25,427.45,926.08Z"/><path class="cls-6" d="M427.45,926.08c-11.38,5.16-14.92,9.48-14.92,9.48l-24.19,7.11h0l24.19-7.11s3.55-4.31,14.93-9.48c4.32-2,5.35-2.43,5.21-2.41S431.48,924.25,427.45,926.08Z"/><path class="cls-4" d="M348.16,927.6l-12.55,15.51L325.26,947h0l10.37-3.93,12.55-15.5,11.81-7h0Z"/><path class="cls-6" d="M348.16,927.6l-12.55,15.51L325.26,947h0l10.37-3.93,12.55-15.5,11.81-7h0Z"/><path class="cls-4" d="M322.14,944.52a42,42,0,0,1-9.1-.18s-7.09-2.66-10-2.92l-8.6-.8-6.2.11a33.81,33.81,0,0,1-7.63-2.07,4.63,4.63,0,0,1-1.1-.56,4.19,4.19,0,0,0,1.11.57,33.81,33.81,0,0,0,7.63,2.07l6.2-.12,8.59.8c2.87.27,10,2.93,10,2.93a43.26,43.26,0,0,0,9.1.18,4,4,0,0,1,2.7.37A4,4,0,0,0,322.14,944.52Z"/><path class="cls-6" d="M322.14,944.52a42,42,0,0,1-9.1-.18s-7.09-2.66-10-2.92l-8.6-.8-6.2.11a33.81,33.81,0,0,1-7.63-2.07,4.63,4.63,0,0,1-1.1-.56,4.19,4.19,0,0,0,1.11.57,33.81,33.81,0,0,0,7.63,2.07l6.2-.12,8.59.8c2.87.27,10,2.93,10,2.93a43.26,43.26,0,0,0,9.1.18,4,4,0,0,1,2.7.37A4,4,0,0,0,322.14,944.52Z"/><path class="cls-4" d="M506.09,886s-50.55.14-55.39,2.39-2.89,10-2.89,10l-6.09,17.67c-6.38,4.07-5.76,4.57-10,7.29-.94.6-1.11.82-.94.85-.16,0,0-.25.95-.85,4.26-2.72,3.64-3.21,10-7.29l6.08-17.67s-1.95-7.73,2.9-10S506.1,886,506.1,886l10.4-9,2.27-.71-2.28.71Z"/><path class="cls-6" d="M506.09,886s-50.55.14-55.39,2.39-2.89,10-2.89,10l-6.09,17.67c-6.38,4.07-5.76,4.57-10,7.29-.94.6-1.11.82-.94.85-.16,0,0-.25.95-.85,4.26-2.72,3.64-3.21,10-7.29l6.08-17.67s-1.95-7.73,2.9-10S506.1,886,506.1,886l10.4-9,2.27-.71-2.28.71Z"/><path class="cls-4" d="M775.89,289.08,747,313.4s-7.77,7.06-10.27,7.61-8.87,4.62-8.87,4.62a33.54,33.54,0,0,0-7,3.57c-3.44,2.35-8.27,7.68-12.4,11.52a86.88,86.88,0,0,0-10,10.41c-3.51,4.34-5.08,5.64-9.1,10.6s-1.51,1.86-7.17,12.68l-1.41,2.66,1.41-2.67c5.67-10.8,3.16-7.7,7.18-12.67s5.58-6.26,9.1-10.6a87.58,87.58,0,0,1,10-10.41c4.14-3.84,9-9.17,12.41-11.52a33.22,33.22,0,0,1,7-3.57s6.39-4.07,8.88-4.62,10.27-7.6,10.27-7.6l28.93-24.32c18.42-57,29.05-42.21,51.68-75.23s25.06-42.36,25.06-42.36h0c0,.08-2.52,9.48-25,42.35C804.93,246.87,794.3,232.1,775.89,289.08Z"/><path class="cls-6" d="M775.89,289.08,747,313.4s-7.77,7.06-10.27,7.61-8.87,4.62-8.87,4.62a33.54,33.54,0,0,0-7,3.57c-3.44,2.35-8.27,7.68-12.4,11.52a86.88,86.88,0,0,0-10,10.41c-3.51,4.34-5.08,5.64-9.1,10.6s-1.51,1.86-7.17,12.68l-1.41,2.66,1.41-2.67c5.67-10.8,3.16-7.7,7.18-12.67s5.58-6.26,9.1-10.6a87.58,87.58,0,0,1,10-10.41c4.14-3.84,9-9.17,12.41-11.52a33.22,33.22,0,0,1,7-3.57s6.39-4.07,8.88-4.62,10.27-7.6,10.27-7.6l28.93-24.32c18.42-57,29.05-42.21,51.68-75.23s25.06-42.36,25.06-42.36h0c0,.08-2.52,9.48-25,42.35C804.93,246.87,794.3,232.1,775.89,289.08Z"/><path class="cls-4" d="M664.86,420.48c-.23,6,.29,2.82-.23,6S661,443.59,661,443.59s-44.46,35.88-49.37,43.2c-3.22,4.81-1.06,9.54.8,12.23-1.86-2.69-4-7.42-.79-12.22,4.9-7.33,49.37-43.21,49.37-43.21s3.07-13.95,3.59-17.12,0,0,.22-6,4.79-19.23,7.7-26.64c.45-1.14.85-2.12,1.23-3-.38.91-.79,1.89-1.23,3C669.64,401.26,665.08,414.5,664.86,420.48Z"/><path class="cls-6" d="M664.86,420.48c-.23,6,.29,2.82-.23,6S661,443.59,661,443.59s-44.46,35.88-49.37,43.2c-3.22,4.81-1.06,9.54.8,12.23-1.86-2.69-4-7.42-.79-12.22,4.9-7.33,49.37-43.21,49.37-43.21s3.07-13.95,3.59-17.12,0,0,.22-6,4.79-19.23,7.7-26.64c.45-1.14.85-2.12,1.23-3-.38.91-.79,1.89-1.23,3C669.64,401.26,665.08,414.5,664.86,420.48Z"/><path class="cls-4" d="M223.91,525.58c-.84,5.48-.53,5.73-.53,5.73s-2.17,9-3.46,15.68.9,5.87.58,8.17,2.44-1.11,2.44-1.11l2.51-3.1c2.51-3.1,1.46-5,2.6-7.65s1.53-4.41,3.86-9.2,3-6.27,3-6.27,1.79-7.28,4.46-16.93,2.59-5.1,6.75-14,3.32-11.7,3.64-14,1-4.35,1.94-11.27c.42-3,.52-3.91.51-4,0,.18-.12,1.17-.52,4-1,6.91-1.61,9-1.93,11.26s.53,5.05-3.64,14-4.08,4.4-6.75,14.05-4.46,16.93-4.46,16.93-.69,1.49-3,6.27-2.72,6.53-3.86,9.2-.08,4.56-2.59,7.66l-2.52,3.1s-2.76,3.41-2.44,1.11-1.86-1.51-.57-8.17,3.46-15.69,3.46-15.69-.31-.25.53-5.73,0-5.67,1.26-12.33c1.2-6.24.57-6.31,1.73-9.92-1.17,3.62-.53,3.69-1.74,9.93C223.89,519.91,224.76,520.1,223.91,525.58Z"/><path class="cls-6" d="M223.91,525.58c-.84,5.48-.53,5.73-.53,5.73s-2.17,9-3.46,15.68.9,5.87.58,8.17,2.44-1.11,2.44-1.11l2.51-3.1c2.51-3.1,1.46-5,2.6-7.65s1.53-4.41,3.86-9.2,3-6.27,3-6.27,1.79-7.28,4.46-16.93,2.59-5.1,6.75-14,3.32-11.7,3.64-14,1-4.35,1.94-11.27c.42-3,.52-3.91.51-4,0,.18-.12,1.17-.52,4-1,6.91-1.61,9-1.93,11.26s.53,5.05-3.64,14-4.08,4.4-6.75,14.05-4.46,16.93-4.46,16.93-.69,1.49-3,6.27-2.72,6.53-3.86,9.2-.08,4.56-2.59,7.66l-2.52,3.1s-2.76,3.41-2.44,1.11-1.86-1.51-.57-8.17,3.46-15.69,3.46-15.69-.31-.25.53-5.73,0-5.67,1.26-12.33c1.2-6.24.57-6.31,1.73-9.92-1.17,3.62-.53,3.69-1.74,9.93C223.89,519.91,224.76,520.1,223.91,525.58Z"/><path class="cls-4" d="M257.41,447.44c1.85-6.72,1.08-3.24,3.37-11.14s.34-4.86,1.81-9.84,8-28.93,8.85-31.85,8.34-28.68,8.34-28.68a71.31,71.31,0,0,1,2-8.16,7.34,7.34,0,0,0,.4-1.93,7.23,7.23,0,0,1-.4,1.91,73.52,73.52,0,0,0-2,8.16s-7.5,25.76-8.33,28.68-7.39,26.88-8.85,31.86.48,1.93-1.81,9.83-1.52,4.42-3.36,11.14A103.37,103.37,0,0,1,254,458l-1.85,9.94,0-.18L254,458A103.32,103.32,0,0,0,257.41,447.44Z"/><path class="cls-6" d="M257.41,447.44c1.85-6.72,1.08-3.24,3.37-11.14s.34-4.86,1.81-9.84,8-28.93,8.85-31.85,8.34-28.68,8.34-28.68a71.31,71.31,0,0,1,2-8.16,7.34,7.34,0,0,0,.4-1.93,7.23,7.23,0,0,1-.4,1.91,73.52,73.52,0,0,0-2,8.16s-7.5,25.76-8.33,28.68-7.39,26.88-8.85,31.86.48,1.93-1.81,9.83-1.52,4.42-3.36,11.14A103.37,103.37,0,0,1,254,458l-1.85,9.94,0-.18L254,458A103.32,103.32,0,0,0,257.41,447.44Z"/><path class="cls-4" d="M232.36,479s-1.1,5.79-1.62,9a46.53,46.53,0,0,1-1.59,6.41,44.77,44.77,0,0,1-1.69,7.24,44.09,44.09,0,0,0,1.69-7.25,47.29,47.29,0,0,0,1.6-6.41c.52-3.18,1.61-9,1.61-9s.71-4.05,1.61-9c.17-.92.35-1.69.53-2.38-.18.69-.36,1.47-.53,2.39C233.06,475,232.36,479,232.36,479Z"/><path class="cls-6" d="M232.36,479s-1.1,5.79-1.62,9a46.53,46.53,0,0,1-1.59,6.41,44.77,44.77,0,0,1-1.69,7.24,44.09,44.09,0,0,0,1.69-7.25,47.29,47.29,0,0,0,1.6-6.41c.52-3.18,1.61-9,1.61-9s.71-4.05,1.61-9c.17-.92.35-1.69.53-2.38-.18.69-.36,1.47-.53,2.39C233.06,475,232.36,479,232.36,479Z"/><path class="cls-4" d="M281.73,352.1c.32-2.31,3.5-12.57,4.25-13.5a3.94,3.94,0,0,0,.22-1.68,3.86,3.86,0,0,1-.22,1.66c-.75.93-3.93,11.2-4.25,13.5a3.85,3.85,0,0,0,0,1.11A4.56,4.56,0,0,1,281.73,352.1Z"/><path class="cls-6" d="M281.73,352.1c.32-2.31,3.5-12.57,4.25-13.5a3.94,3.94,0,0,0,.22-1.68,3.86,3.86,0,0,1-.22,1.66c-.75.93-3.93,11.2-4.25,13.5a3.85,3.85,0,0,0,0,1.11A4.56,4.56,0,0,1,281.73,352.1Z"/><path class="cls-4" d="M738.3,132s.1-.14.06-.15S738.25,132,738.3,132Z"/><path class="cls-6" d="M738.3,132s.1-.14.06-.15S738.25,132,738.3,132Z"/><path class="cls-4" d="M668.26,141.07c.08,1.54,3.33,1.81,3.3,2.06C671.64,142.88,668.35,142.62,668.26,141.07Z"/><path class="cls-6" d="M668.26,141.07c.08,1.54,3.33,1.81,3.3,2.06C671.64,142.88,668.35,142.62,668.26,141.07Z"/><path class="cls-4" d="M670.44,138.28a2.87,2.87,0,0,1,0-.4A3.09,3.09,0,0,0,670.44,138.28Z"/><path class="cls-6" d="M670.44,138.28a2.87,2.87,0,0,1,0-.4A3.09,3.09,0,0,0,670.44,138.28Z"/><path class="cls-4" d="M259.81,275.81c3.75-2.09,2.51-3.1,4-5s8.24-2.57,8.24-2.57,5.88-3.45,12.12-3.54,2.39-4.22,5-6.2,7.12-2.45,7.12-2.45,5-1.1,7.74-1.95a105.53,105.53,0,0,0,9.75-4.43s10-7.3,13.14-9.9S337.59,233,337.59,233l17.93,3.22s9-.94,16-4.51,8.36-1.45,11.73-1.8,13.08.32,13.08.32l62.66-14s7.46,2.2,11.12.54,4.59-.91,7.78-3,14.33-5.34,14.33-5.34l28.23-31c28.23-31.06,41.68-28.64,46.56-30.86s0,0,16.19-3.83c5.86-1.38,7.47-1.76,7.49-1.7.15-.11-1.32.23-7.48,1.69-16.2,3.83-11.33,1.62-16.2,3.83s-18.32-.21-46.56,30.85L492.2,208.52s-11.14,3.3-14.33,5.34-4.12,1.29-7.78,2.95-11.12-.54-11.12-.54l-62.66,14s-9.71-.69-13.08-.33-4.73-1.77-11.73,1.8-16,4.52-16,4.52L337.59,233s-7.5,4.2-10.64,6.8-13.14,9.89-13.14,9.89a105.53,105.53,0,0,1-9.75,4.43c-2.75.86-7.74,1.95-7.74,1.95s-4.49.47-7.12,2.45,1.21,6.11-5,6.2-12.12,3.54-12.12,3.54-6.73.71-8.24,2.57-.26,2.87-4,5-3-1.38-12,9.78c-1.7,2.1-2.34,4-2.26,5.61a8.42,8.42,0,0,1,2.26-5.59C256.82,274.42,256.05,277.91,259.81,275.81Z"/><path class="cls-6" d="M259.81,275.81c3.75-2.09,2.51-3.1,4-5s8.24-2.57,8.24-2.57,5.88-3.45,12.12-3.54,2.39-4.22,5-6.2,7.12-2.45,7.12-2.45,5-1.1,7.74-1.95a105.53,105.53,0,0,0,9.75-4.43s10-7.3,13.14-9.9S337.59,233,337.59,233l17.93,3.22s9-.94,16-4.51,8.36-1.45,11.73-1.8,13.08.32,13.08.32l62.66-14s7.46,2.2,11.12.54,4.59-.91,7.78-3,14.33-5.34,14.33-5.34l28.23-31c28.23-31.06,41.68-28.64,46.56-30.86s0,0,16.19-3.83c5.86-1.38,7.47-1.76,7.49-1.7.15-.11-1.32.23-7.48,1.69-16.2,3.83-11.33,1.62-16.2,3.83s-18.32-.21-46.56,30.85L492.2,208.52s-11.14,3.3-14.33,5.34-4.12,1.29-7.78,2.95-11.12-.54-11.12-.54l-62.66,14s-9.71-.69-13.08-.33-4.73-1.77-11.73,1.8-16,4.52-16,4.52L337.59,233s-7.5,4.2-10.64,6.8-13.14,9.89-13.14,9.89a105.53,105.53,0,0,1-9.75,4.43c-2.75.86-7.74,1.95-7.74,1.95s-4.49.47-7.12,2.45,1.21,6.11-5,6.2-12.12,3.54-12.12,3.54-6.73.71-8.24,2.57-.26,2.87-4,5-3-1.38-12,9.78c-1.7,2.1-2.34,4-2.26,5.61a8.42,8.42,0,0,1,2.26-5.59C256.82,274.42,256.05,277.91,259.81,275.81Z"/><path class="cls-4" d="M590.38,142.47c7.2-.33,6.54,1.44,14.29,2.33s5.7,1.53,12.77,1.87,4.13,1,6.75,1.61,2.53-.26,10.19-.22,3.83,0,11.7-2.08a30,30,0,0,1,9.37-1.34,30,30,0,0,0-9.37,1.33c-7.87,2.1-4,2.12-11.7,2.08s-7.58.79-10.19.22.34-1.27-6.74-1.61-5-1-12.77-1.87-7.09-2.66-14.3-2.33c-1.56.07-2-.05-2-.25C588.34,142.42,588.79,142.55,590.38,142.47Z"/><path class="cls-6" d="M590.38,142.47c7.2-.33,6.54,1.44,14.29,2.33s5.7,1.53,12.77,1.87,4.13,1,6.75,1.61,2.53-.26,10.19-.22,3.83,0,11.7-2.08a30,30,0,0,1,9.37-1.34,30,30,0,0,0-9.37,1.33c-7.87,2.1-4,2.12-11.7,2.08s-7.58.79-10.19.22.34-1.27-6.74-1.61-5-1-12.77-1.87-7.09-2.66-14.3-2.33c-1.56.07-2-.05-2-.25C588.34,142.42,588.79,142.55,590.38,142.47Z"/><path class="cls-5" d="M252.13,467.93c-.07.34-.14.77-.14.77Z"/><path class="cls-6" d="M252.13,467.93c-.07.34-.14.77-.14.77Z"/><path class="cls-4" d="M403.63,1127.63a13.52,13.52,0,0,0-2.16-3.33h0l-.1-.08c-1.69-1.35-7.92-6-14.09-5.85-5.88.13-6.2.63-11.27-.87H376l-1.06-.32c-1.61-.47-3.21-1-4.79-1.6s-3.13-1.24-4.66-1.94l-.68-.09a37.84,37.84,0,0,1-7.06-1.5,8.19,8.19,0,0,1-1.28-.58c-2-1.19-7.32-.41-9.17-.09a578,578,0,0,0,59.15,22.13c-.14-.34-.35-.8-.6-1.35C405.23,1130.86,404.43,1129.15,403.63,1127.63Z"/><path class="cls-4" d="M403.63,1127.63a13.52,13.52,0,0,0-2.16-3.33h0l-.1-.08c-1.69-1.35-7.92-6-14.09-5.85-5.88.13-6.2.63-11.27-.87H376l-1.06-.32c-1.61-.47-3.21-1-4.79-1.6s-3.13-1.24-4.66-1.94l-.68-.09a37.84,37.84,0,0,1-7.06-1.5,8.19,8.19,0,0,1-1.28-.58c-2-1.19-7.32-.41-9.17-.09a578,578,0,0,0,59.15,22.13c-.14-.34-.35-.8-.6-1.35C405.23,1130.86,404.43,1129.15,403.63,1127.63Z"/><path class="cls-4" d="M376,1117.48h0Z"/><path class="cls-6" d="M376,1117.48h0Z"/><path class="cls-4" d="M403.63,1127.63c.8,1.52,1.6,3.23,2.18,4.51C405.23,1130.86,404.43,1129.15,403.63,1127.63Z"/><path class="cls-6" d="M403.63,1127.63c.8,1.52,1.6,3.23,2.18,4.51C405.23,1130.86,404.43,1129.15,403.63,1127.63Z"/><path class="cls-4" d="M370.11,1115.56c-1.57-.59-3.13-1.24-4.66-1.94l-.68-.09.68.09C367,1114.32,368.54,1115,370.11,1115.56Z"/><path class="cls-6" d="M370.11,1115.56c-1.57-.59-3.13-1.24-4.66-1.94l-.68-.09.68.09C367,1114.32,368.54,1115,370.11,1115.56Z"/><path class="cls-4" d="M387.28,1118.37c6.17-.14,12.4,4.5,14.09,5.85-1.69-1.35-7.92-6-14.09-5.85-5.87.13-6.2.63-11.27-.87C381.08,1119,381.4,1118.5,387.28,1118.37Z"/><path class="cls-6" d="M387.28,1118.37c6.17-.14,12.4,4.5,14.09,5.85-1.69-1.35-7.92-6-14.09-5.85-5.87.13-6.2.63-11.27-.87C381.08,1119,381.4,1118.5,387.28,1118.37Z"/><path class="cls-4" d="M356.43,1111.45a8.19,8.19,0,0,0,1.28.58,7.7,7.7,0,0,1-1.28-.59c-2-1.19-7.33-.4-9.17-.08h0C349.11,1111,354.44,1110.26,356.43,1111.45Z"/><path class="cls-6" d="M356.43,1111.45a8.19,8.19,0,0,0,1.28.58,7.7,7.7,0,0,1-1.28-.59c-2-1.19-7.33-.4-9.17-.08h0C349.11,1111,354.44,1110.26,356.43,1111.45Z"/><polygon class="cls-4" points="401.47 1124.3 401.47 1124.3 401.47 1124.3 401.47 1124.3"/><polygon class="cls-6" points="401.47 1124.3 401.47 1124.3 401.47 1124.3 401.47 1124.3"/><path class="cls-4" d="M665.59,1148.18a73.64,73.64,0,0,0-8.79.07c-3.37.36-4.55-.09-8.85-.48s-11.27-1.94-11.27-1.94l-4.92-.9s-4.6-.65-6.72-1.85c-1.38-.79-4.41-2.24-6.34-3.16l-1.73-.81-7.34-2.35a7,7,0,0,0-5.5,1.71,41.32,41.32,0,0,1-5.51,4.26s-4.13,3.84-6.57,5h0a12.36,12.36,0,0,1-4,1.17l-1.2.23a11,11,0,0,1-3.53.45l-4.07.07a31.92,31.92,0,0,1-5.22-.25c-2.8-.38-4.64-1.07-8.86-1.39-1.67-.13-2.53-.18-3-.2a28.75,28.75,0,0,1-3.52-.27l-2.6-.27c-8-.86-9.15-.74-15-2.4l-4.41-1.24a24.67,24.67,0,0,1-7.1-2.94c-1.32-.84-2.84-2.05-4.43-3.2a18.53,18.53,0,0,0-6.19-3.34c-3.48-.77-3.53-3.89-16.75-2.78-12.8,1.07-39.83,3.64-41.51,3.79h-.25l-.5,0a103.42,103.42,0,0,0-13.47-.14,9,9,0,0,0-3.94,1c-2.15,1.62-4.42,5.08-5.18,6.29a584.27,584.27,0,0,0,240.83,9.27l-7.06-3Z"/><path class="cls-4" d="M665.59,1148.18a73.64,73.64,0,0,0-8.79.07c-3.37.36-4.55-.09-8.85-.48s-11.27-1.94-11.27-1.94l-4.92-.9s-4.6-.65-6.72-1.85c-1.38-.79-4.41-2.24-6.34-3.16l-1.73-.81-7.34-2.35a7,7,0,0,0-5.5,1.71,41.32,41.32,0,0,1-5.51,4.26s-4.13,3.84-6.57,5h0a12.36,12.36,0,0,1-4,1.17l-1.2.23a11,11,0,0,1-3.53.45l-4.07.07a31.92,31.92,0,0,1-5.22-.25c-2.8-.38-4.64-1.07-8.86-1.39-1.67-.13-2.53-.18-3-.2a28.75,28.75,0,0,1-3.52-.27l-2.6-.27c-8-.86-9.15-.74-15-2.4l-4.41-1.24a24.67,24.67,0,0,1-7.1-2.94c-1.32-.84-2.84-2.05-4.43-3.2a18.53,18.53,0,0,0-6.19-3.34c-3.48-.77-3.53-3.89-16.75-2.78-12.8,1.07-39.83,3.64-41.51,3.79h-.25l-.5,0a103.42,103.42,0,0,0-13.47-.14,9,9,0,0,0-3.94,1c-2.15,1.62-4.42,5.08-5.18,6.29a584.27,584.27,0,0,0,240.83,9.27l-7.06-3Z"/><path class="cls-4" d="M459.82,1135.07a103.45,103.45,0,0,0-13.47-.14A103.42,103.42,0,0,1,459.82,1135.07Z"/><path class="cls-6" d="M459.82,1135.07a103.45,103.45,0,0,0-13.47-.14A103.42,103.42,0,0,1,459.82,1135.07Z"/><path class="cls-4" d="M588,1148.85l-1.2.23a11,11,0,0,1-3.53.45,11,11,0,0,0,3.53-.45Z"/><path class="cls-6" d="M588,1148.85l-1.2.23a11,11,0,0,1-3.53.45,11,11,0,0,0,3.53-.45Z"/><path class="cls-4" d="M518.83,1134.1a18.53,18.53,0,0,1,6.19,3.34,18.35,18.35,0,0,0-6.19-3.34c-3.48-.77-3.53-3.89-16.75-2.78-12.8,1.07-39.83,3.64-41.51,3.79,1.68-.15,28.71-2.72,41.51-3.79C515.3,1130.21,515.35,1133.33,518.83,1134.1Z"/><path class="cls-6" d="M518.83,1134.1a18.53,18.53,0,0,1,6.19,3.34,18.35,18.35,0,0,0-6.19-3.34c-3.48-.77-3.53-3.89-16.75-2.78-12.8,1.07-39.83,3.64-41.51,3.79,1.68-.15,28.71-2.72,41.51-3.79C515.3,1130.21,515.35,1133.33,518.83,1134.1Z"/><path class="cls-4" d="M574,1149.35c-2.8-.38-4.64-1.08-8.86-1.39-1.67-.13-2.53-.18-3-.2.51,0,1.37.07,3,.2C569.34,1148.28,571.18,1149,574,1149.35Z"/><path class="cls-6" d="M574,1149.35c-2.8-.38-4.64-1.08-8.86-1.39-1.67-.13-2.53-.18-3-.2.51,0,1.37.07,3,.2C569.34,1148.28,571.18,1149,574,1149.35Z"/><path class="cls-4" d="M556,1147.22l2.6.27-2.6-.27c-8-.86-9.15-.74-15-2.4l-4.41-1.24,4.41,1.24C546.81,1146.48,547.93,1146.36,556,1147.22Z"/><path class="cls-6" d="M556,1147.22l2.6.27-2.6-.27c-8-.86-9.15-.74-15-2.4l-4.41-1.24,4.41,1.24C546.81,1146.48,547.93,1146.36,556,1147.22Z"/><path class="cls-4" d="M598.62,1142.73a41.32,41.32,0,0,0,5.51-4.26,7,7,0,0,1,5.5-1.71l7.34,2.35,1.73.81-1.73-.82-7.34-2.34a7,7,0,0,0-5.5,1.71,41.32,41.32,0,0,1-5.51,4.26s-4.14,3.84-6.57,5h0C594.49,1146.57,598.62,1142.73,598.62,1142.73Z"/><path class="cls-6" d="M598.62,1142.73a41.32,41.32,0,0,0,5.51-4.26,7,7,0,0,1,5.5-1.71l7.34,2.35,1.73.81-1.73-.82-7.34-2.34a7,7,0,0,0-5.5,1.71,41.32,41.32,0,0,1-5.51,4.26s-4.14,3.84-6.57,5h0C594.49,1146.57,598.62,1142.73,598.62,1142.73Z"/><path class="cls-4" d="M302.67,1085.88a12.5,12.5,0,0,1,5.48.85c2.67,1.13,10.81,5.67,10.81,5.67a9,9,0,0,1,5.31,1c2.9,1.49,4.28,1.06,8,1.52s12.32,3.82,14.68,4.7l7,2.62s7.07,4.69,9,4.2,15-.71,15-.71,3.56-2.4,3.82-4.08a1,1,0,0,0-.06-.57,4.81,4.81,0,0,0-2-2.64c-1.24-1-4.63-6.32-8.37-6.78s-4-1.66-7.46-1.67-5.73-2.33-8-2.1-9.59-2.11-13.19-4-6.59-3.28-10.75-5.11-7.15-3.22-9.51-4.11-6.22-2.47-7.77-3.72l-6.52-5.28c-4.65-3.77-8.26-6.17-12.36-6.92-3.61-.67-11.86-6-13.54-7.38a10.79,10.79,0,0,0-3.86-1.58s-2,2.27-5.37-.49l-9.54-7.73c-5.08-4.12-5.72-1.8-12.32-2.53a47.65,47.65,0,0,0-8.85-.49c-2.55,0-3,1.17-5.48-.84s-10.5-5.42-10.5-5.42l-6.35-1-1.74,2.14a579.48,579.48,0,0,0,71.57,48.86Z"/><path class="cls-4" d="M302.67,1085.88a12.5,12.5,0,0,1,5.48.85c2.67,1.13,10.81,5.67,10.81,5.67a9,9,0,0,1,5.31,1c2.9,1.49,4.28,1.06,8,1.52s12.32,3.82,14.68,4.7l7,2.62s7.07,4.69,9,4.2,15-.71,15-.71,3.56-2.4,3.82-4.08a1,1,0,0,0-.06-.57,4.81,4.81,0,0,0-2-2.64c-1.24-1-4.63-6.32-8.37-6.78s-4-1.66-7.46-1.67-5.73-2.33-8-2.1-9.59-2.11-13.19-4-6.59-3.28-10.75-5.11-7.15-3.22-9.51-4.11-6.22-2.47-7.77-3.72l-6.52-5.28c-4.65-3.77-8.26-6.17-12.36-6.92-3.61-.67-11.86-6-13.54-7.38a10.79,10.79,0,0,0-3.86-1.58s-2,2.27-5.37-.49l-9.54-7.73c-5.08-4.12-5.72-1.8-12.32-2.53a47.65,47.65,0,0,0-8.85-.49c-2.55,0-3,1.17-5.48-.84s-10.5-5.42-10.5-5.42l-6.35-1-1.74,2.14a579.48,579.48,0,0,0,71.57,48.86Z"/><path class="cls-4" d="M378,1105.78s-13,.23-15,.71-9-4.2-9-4.2l-7-2.62c-2.36-.88-10.94-4.24-14.68-4.7s-5.11,0-8-1.52a9,9,0,0,0-5.31-1s-8.14-4.54-10.81-5.67a12.5,12.5,0,0,0-5.48-.85l-12.8-3.58h0l12.79,3.58a12.35,12.35,0,0,1,5.48.84h0c2.67,1.14,10.81,5.67,10.81,5.67a9.07,9.07,0,0,1,5.31,1c2.9,1.49,4.28,1.07,8,1.52s12.32,3.82,14.68,4.7,7,2.62,7,2.62,7.07,4.7,9,4.21,15-.72,15-.72,3.57-2.4,3.83-4.08C381.53,1103.38,378,1105.78,378,1105.78Z"/><path class="cls-6" d="M378,1105.78s-13,.23-15,.71-9-4.2-9-4.2l-7-2.62c-2.36-.88-10.94-4.24-14.68-4.7s-5.11,0-8-1.52a9,9,0,0,0-5.31-1s-8.14-4.54-10.81-5.67a12.5,12.5,0,0,0-5.48-.85l-12.8-3.58h0l12.79,3.58a12.35,12.35,0,0,1,5.48.84h0c2.67,1.14,10.81,5.67,10.81,5.67a9.07,9.07,0,0,1,5.31,1c2.9,1.49,4.28,1.07,8,1.52s12.32,3.82,14.68,4.7,7,2.62,7,2.62,7.07,4.7,9,4.21,15-.72,15-.72,3.57-2.4,3.83-4.08C381.53,1103.38,378,1105.78,378,1105.78Z"/><path class="cls-4" d="M286.36,1038.8c-1.16-3-4.63-6.33-4.63-6.33l-6.82-5.52-5.07.25-5.1.25s-4.45-3.22-6.58-2.79a1.28,1.28,0,0,0-.75.44c-1.5,1.85-3.59,4.43-1.44,5.58s8.42,4.18,8.42,4.18l15.36,8.31s3.08,2.5,4.65,1.22h0C286,1043.09,287.53,1041.8,286.36,1038.8Z"/><path class="cls-4" d="M286.36,1038.8c-1.16-3-4.63-6.33-4.63-6.33l-6.82-5.52-5.07.25-5.1.25s-4.45-3.22-6.58-2.79a1.28,1.28,0,0,0-.75.44c-1.5,1.85-3.59,4.43-1.44,5.58s8.42,4.18,8.42,4.18l15.36,8.31s3.08,2.5,4.65,1.22h0C286,1043.09,287.53,1041.8,286.36,1038.8Z"/><path class="cls-4" d="M264.74,1027.45l5.1-.25-5.09.25s-4.47-3.23-6.59-2.79C260.29,1024.23,264.74,1027.45,264.74,1027.45Z"/><path class="cls-6" d="M264.74,1027.45l5.1-.25-5.09.25s-4.47-3.23-6.59-2.79C260.29,1024.23,264.74,1027.45,264.74,1027.45Z"/><path class="cls-4" d="M286.37,1038.8c-1.17-3-4.63-6.33-4.63-6.33l-6.83-5.52h0l6.82,5.52s3.47,3.33,4.63,6.33-.4,4.29-2,5.59h0c1.57-1.3,3.13-2.6,2-5.6Z"/><path class="cls-6" d="M286.37,1038.8c-1.17-3-4.63-6.33-4.63-6.33l-6.83-5.52h0l6.82,5.52s3.47,3.33,4.63,6.33-.4,4.29-2,5.59h0c1.57-1.3,3.13-2.6,2-5.6Z"/><path class="cls-4" d="M238.26,146.41a36.23,36.23,0,0,0-7.9,1.88,36.85,36.85,0,0,0-4.46,2l-3.68,10.88,3.51-4.34h0l2.81-1.09,9.18-3.57Z"/><path class="cls-4" d="M238.26,146.41a36.23,36.23,0,0,0-7.9,1.88,36.85,36.85,0,0,0-4.46,2l-3.68,10.88,3.51-4.34h0l2.81-1.09,9.18-3.57Z"/><polygon class="cls-4" points="238.26 146.41 238.26 146.41 238.26 146.41 238.26 146.41"/><polygon class="cls-6" points="238.26 146.41 238.26 146.41 238.26 146.41 238.26 146.41"/><path class="cls-4" d="M238.26,146.41h0l-.53,5.73-9.18,3.57,9.18-3.57.53-5.74a36.83,36.83,0,0,0-7.9,1.89A36.23,36.23,0,0,1,238.26,146.41Z"/><path class="cls-4" d="M238.26,146.41h0l-.53,5.73-9.18,3.57,9.18-3.57.53-5.74a36.83,36.83,0,0,0-7.9,1.89A36.23,36.23,0,0,1,238.26,146.41Z"/><polygon class="cls-4" points="222.22 161.14 222.22 161.14 225.74 156.8 225.73 156.8 222.22 161.14"/><polygon class="cls-6" points="222.22 161.14 222.22 161.14 225.74 156.8 225.73 156.8 222.22 161.14"/><path class="cls-4" d="M1111.78,358.76s5.72,22.1,4.21,24-3.19,12.82-3.19,12.82l2.31,11.11-.42,6.85,2.69,9.36-1.81,9.84a7,7,0,0,0-1.26,2.78h0s0,.08,0,.13a4.86,4.86,0,0,0,.14,2.31c.86,2.75-.24-2.25.7,6.73s.83,7.86.53,15.84-.53,5.73-.09,15.33a51,51,0,0,0,.74,7.05c.51,2.9,1,4,.29,8.16a41.86,41.86,0,0,0-.48,4.83,21.16,21.16,0,0,1-2.48,10.23c-3.28,6.59-6.53,8.07-6.53,8.07l-3.49,4.68-7,9.41h0a16.42,16.42,0,0,0-4.81.39,5.45,5.45,0,0,0-2.86,1.61c-2,2.48-5.61.6-7,8.69s-5.93,9.58-4.88,13.5c.94,3.54.71,5.32-.93,10.4-.18.54-.36,1.11-.57,1.74-2.14,6.42-2.89,4.88-6.25,15.16a1.83,1.83,0,0,1-.08.25c-2.74,8.48-.87,5.54-2,7.74-.27.55-.72,1.41-1.48,2.84-3.78,7.21-4.43,11.82-10.22,21.51l-1.12,1.88c-4.49,7.58-3.56,6.43-8.69,12.77-5.52,6.82-5.91,8.56-10.55,13s-.6,5.67-6.75,8.91l-6.16,3.23-19.82,21.94L992,695.19l-1,20.71,1.87,3.28,5.78,10.11,10.21,21.62,4.35,7.6,3.3,5.78h0l1.68,10.6.65,17,11.88,15.77L1022.4,842l-12.11,25.1-4.16,12.74-4.86,14.88,2.56,28.55-8.24,25.38,4,11.5,2,7.74,7.54,1.4a580.17,580.17,0,0,0,104.05-615.55l-.74,2.67Z"/><path class="cls-4" d="M1111.78,358.76s5.72,22.1,4.21,24-3.19,12.82-3.19,12.82l2.31,11.11-.42,6.85,2.69,9.36-1.81,9.84a7,7,0,0,0-1.26,2.78h0s0,.08,0,.13a4.86,4.86,0,0,0,.14,2.31c.86,2.75-.24-2.25.7,6.73s.83,7.86.53,15.84-.53,5.73-.09,15.33a51,51,0,0,0,.74,7.05c.51,2.9,1,4,.29,8.16a41.86,41.86,0,0,0-.48,4.83,21.16,21.16,0,0,1-2.48,10.23c-3.28,6.59-6.53,8.07-6.53,8.07l-3.49,4.68-7,9.41h0a16.42,16.42,0,0,0-4.81.39,5.45,5.45,0,0,0-2.86,1.61c-2,2.48-5.61.6-7,8.69s-5.93,9.58-4.88,13.5c.94,3.54.71,5.32-.93,10.4-.18.54-.36,1.11-.57,1.74-2.14,6.42-2.89,4.88-6.25,15.16a1.83,1.83,0,0,1-.08.25c-2.74,8.48-.87,5.54-2,7.74-.27.55-.72,1.41-1.48,2.84-3.78,7.21-4.43,11.82-10.22,21.51l-1.12,1.88c-4.49,7.58-3.56,6.43-8.69,12.77-5.52,6.82-5.91,8.56-10.55,13s-.6,5.67-6.75,8.91l-6.16,3.23-19.82,21.94L992,695.19l-1,20.71,1.87,3.28,5.78,10.11,10.21,21.62,4.35,7.6,3.3,5.78h0l1.68,10.6.65,17,11.88,15.77L1022.4,842l-12.11,25.1-4.16,12.74-4.86,14.88,2.56,28.55-8.24,25.38,4,11.5,2,7.74,7.54,1.4a580.17,580.17,0,0,0,104.05-615.55l-.74,2.67Z"/><path class="cls-4" d="M1002.46,673.84l19.82-21.94,6.16-3.23c6.15-3.24,2.11-4.45,6.75-8.91s5-6.2,10.55-13c5.13-6.34,4.2-5.19,8.69-12.77-4.49,7.58-3.56,6.42-8.69,12.76-5.53,6.83-5.91,8.57-10.55,13s-.6,5.67-6.75,8.9l-6.16,3.23-19.83,22L992,695.19l-1,20.71h0l1-20.71Z"/><path class="cls-6" d="M1002.46,673.84l19.82-21.94,6.16-3.23c6.15-3.24,2.11-4.45,6.75-8.91s5-6.2,10.55-13c5.13-6.34,4.2-5.19,8.69-12.77-4.49,7.58-3.56,6.42-8.69,12.76-5.53,6.83-5.91,8.57-10.55,13s-.6,5.67-6.75,8.9l-6.16,3.23-19.83,22L992,695.19l-1,20.71h0l1-20.71Z"/><polygon class="cls-4" points="1022.4 841.99 1030.7 807.63 1022.4 841.99 1010.28 867.09 1006.13 879.83 1010.29 867.09 1022.4 841.99"/><polygon class="cls-6" points="1022.4 841.99 1030.7 807.63 1022.4 841.99 1010.28 867.09 1006.13 879.83 1010.29 867.09 1022.4 841.99"/><polygon class="cls-4" points="1018.18 774.9 1016.5 764.29 1016.5 764.29 1018.18 774.9 1018.83 791.85 1030.7 807.63 1018.83 791.86 1018.18 774.9"/><polygon class="cls-6" points="1018.18 774.9 1016.5 764.29 1016.5 764.29 1018.18 774.9 1018.83 791.85 1030.7 807.63 1018.83 791.86 1018.18 774.9"/><path class="cls-4" d="M1117.38,422.86l-2.69-9.36.42-6.85-2.31-11.11s1.69-11,3.19-12.82-4.21-24-4.21-24l.66-2.36-.66,2.36s5.72,22.1,4.21,24h0c-1.5,1.87-3.19,12.82-3.19,12.82l2.3,11.11-.41,6.86,2.68,9.36-1.8,9.84a7,7,0,0,0-1.26,2.78,7,7,0,0,1,1.26-2.78Z"/><path class="cls-6" d="M1117.38,422.86l-2.69-9.36.42-6.85-2.31-11.11s1.69-11,3.19-12.82-4.21-24-4.21-24l.66-2.36-.66,2.36s5.72,22.1,4.21,24h0c-1.5,1.87-3.19,12.82-3.19,12.82l2.3,11.11-.41,6.86,2.68,9.36-1.8,9.84a7,7,0,0,0-1.26,2.78,7,7,0,0,1,1.26-2.78Z"/><path class="cls-4" d="M1069.2,580a1.83,1.83,0,0,0,.08-.25,2.58,2.58,0,0,1-.08.26c-2.75,8.47-.87,5.53-2,7.73C1068.33,585.54,1066.46,588.48,1069.2,580Z"/><path class="cls-6" d="M1069.2,580a1.83,1.83,0,0,0,.08-.25,2.58,2.58,0,0,1-.08.26c-2.75,8.47-.87,5.53-2,7.73C1068.33,585.54,1066.46,588.48,1069.2,580Z"/><polygon class="cls-4" points="998.64 729.29 992.86 719.18 998.63 729.28 1008.85 750.91 1013.2 758.51 1008.85 750.91 998.64 729.29"/><polygon class="cls-6" points="998.64 729.29 992.86 719.18 998.63 729.28 1008.85 750.91 1013.2 758.51 1008.85 750.91 998.64 729.29"/><path class="cls-4" d="M1116.31,482.88c.51,2.9,1,4,.29,8.16a41.65,41.65,0,0,0-.48,4.83,41.86,41.86,0,0,1,.48-4.83C1117.27,486.92,1116.82,485.78,1116.31,482.88Z"/><path class="cls-6" d="M1116.31,482.88c.51,2.9,1,4,.29,8.16a41.65,41.65,0,0,0-.48,4.83,41.86,41.86,0,0,1,.48-4.83C1117.27,486.92,1116.82,485.78,1116.31,482.88Z"/><path class="cls-4" d="M1114.29,435.62c0-.05,0-.09,0-.13S1114.3,435.57,1114.29,435.62Z"/><path class="cls-6" d="M1114.29,435.62c0-.05,0-.09,0-.13S1114.3,435.57,1114.29,435.62Z"/><polygon class="cls-4" points="1103.62 518.85 1096.61 528.26 1096.62 528.26 1103.62 518.85"/><polygon class="cls-6" points="1103.62 518.85 1096.61 528.26 1096.62 528.26 1103.62 518.85"/><path class="cls-4" d="M1077,552.45c-1-3.92,3.46-5.41,4.88-13.5s5-6.21,7-8.69a5.45,5.45,0,0,1,2.86-1.61,5.45,5.45,0,0,0-2.86,1.61c-2,2.48-5.61.59-7,8.69s-5.93,9.57-4.89,13.5c1,3.54.72,5.32-.92,10.4C1077.74,557.77,1078,556,1077,552.45Z"/><path class="cls-6" d="M1077,552.45c-1-3.92,3.46-5.41,4.88-13.5s5-6.21,7-8.69a5.45,5.45,0,0,1,2.86-1.61,5.45,5.45,0,0,0-2.86,1.61c-2,2.48-5.61.59-7,8.69s-5.93,9.57-4.89,13.5c1,3.54.72,5.32-.92,10.4C1077.74,557.77,1078,556,1077,552.45Z"/></g></g></svg>