<svg xmlns="http://www.w3.org/2000/svg" viewBox="0 0 264.38 130.38"><defs><style>.cls-1{fill:#00886e;}.cls-1,.cls-2{stroke:#000;stroke-width:0.25px;}.cls-1,.cls-2,.cls-7{stroke-miterlimit:10;}.cls-2{fill:#066954;}.cls-3{fill:#fff;}.cls-4{fill:#d2e1ed;}.cls-5{fill:#e5edf4;}.cls-6{fill:#1d1d1b;}.cls-7{fill:none;stroke:#fff;stroke-width:2px;}</style></defs><g id="Layer_2" data-name="Layer 2"><g id="Logo-1"><g id="dome"><polygon class="cls-1" points="107.62 0.22 112.31 8.99 139.67 0.22 107.62 0.22"/><polygon class="cls-1" points="139.67 0.22 150.45 11.96 112.31 8.99 139.67 0.22"/><polygon class="cls-1" points="112.31 8.99 123.64 25.64 150.45 11.96 112.31 8.99"/><polygon class="cls-1" points="112.31 8.99 76.79 12.53 107.62 0.22 112.31 8.99"/><polygon class="cls-1" points="76.79 12.53 84.23 26.71 112.31 8.99 76.79 12.53"/><polygon class="cls-1" points="84.23 26.71 123.64 25.64 112.31 8.99 84.23 26.71"/><polygon class="cls-1" points="123.64 25.64 128.24 50.01 161.06 30.08 123.64 25.64"/><polygon class="cls-1" points="150.45 11.96 161.06 30.08 123.64 25.64 150.45 11.96"/><polygon class="cls-1" points="150.45 11.96 174.04 8.37 139.67 0.22 150.45 11.96"/><polygon class="cls-1" points="150.45 11.96 188.52 26.71 173.72 8.42 150.45 11.96"/><polygon class="cls-1" points="161.06 30.08 188.52 26.71 150.45 11.96 161.06 30.08"/><polygon class="cls-1" points="161.06 30.08 193.87 53.08 188.52 26.71 161.06 30.08"/><polygon class="cls-1" points="161.06 30.08 164.28 53.08 193.87 53.08 161.06 30.08"/><polygon class="cls-1" points="188.52 26.45 218.55 55.64 206.96 27.39 188.52 26.45"/><polygon class="cls-1" points="173.72 8.42 206.96 27.65 188.52 26.71 173.72 8.42"/><polygon class="cls-1" points="193.87 53.08 219.45 82.67 218.55 55.9 193.87 53.08"/><polygon class="cls-1" points="84.23 26.71 94.55 52.38 123.64 25.64 84.23 26.71"/><polygon class="cls-1" points="84.23 26.71 56.87 55.76 50.42 37.83 84.23 26.71"/><polygon class="cls-1" points="76.79 12.53 50.42 37.83 47.65 31.07 76.79 12.53"/><polygon class="cls-1" points="47.65 31.07 27.23 54.57 50.42 37.83 47.65 31.07"/><polygon class="cls-1" points="27.23 54.57 35.06 64.45 50.42 37.83 27.23 54.57"/><polygon class="cls-1" points="56.87 55.76 35.06 64.45 50.42 37.83 56.87 55.76"/><polygon class="cls-1" points="56.87 55.76 70.75 82.82 94.55 52.38 56.87 55.76"/><polygon class="cls-1" points="56.87 55.76 38.82 83.41 70.75 82.82 56.87 55.76"/><polygon class="cls-1" points="35.06 64.45 38.82 83.41 56.87 55.76 35.06 64.45"/><polygon class="cls-1" points="38.82 83.41 51.92 115.45 70.75 82.82 38.82 83.41"/><polygon class="cls-1" points="38.82 83.41 21.82 115.45 51.92 115.45 38.82 83.41"/><polygon class="cls-1" points="35.06 64.45 18.11 86.54 38.82 83.41 35.06 64.45"/><polygon class="cls-1" points="18.11 86.54 21.82 115.45 38.82 83.41 18.11 86.54"/><polygon class="cls-1" points="193.87 53.08 188.19 82.67 164.28 53.08 193.87 53.08"/><polygon class="cls-1" points="188.19 82.67 219.45 82.67 193.87 53.08 188.19 82.67"/><path class="cls-1" d="M188.19,82.67s19.86,32.17,19.66,32,11.6-32,11.6-32Z"/><polygon class="cls-1" points="219.45 82.67 234.91 115.14 207.85 114.64 219.45 82.67"/><polygon class="cls-1" points="234.91 115.14 237.69 84.7 219.45 82.67 234.91 115.14"/><polygon class="cls-1" points="237.69 84.7 247.4 114.64 234.91 115.14 237.69 84.7"/><polygon class="cls-1" points="247.4 114.64 244.53 84.7 237.69 84.7 247.4 114.64"/><polygon class="cls-1" points="206.96 27.65 232.43 58.63 218.55 55.9 206.96 27.65"/><polygon class="cls-1" points="219.45 82.67 232.43 58.63 218.55 55.9 219.45 82.67"/><polygon class="cls-1" points="237.69 84.7 232.43 58.63 219.45 82.67 237.69 84.7"/><polygon class="cls-1" points="244.53 84.7 232.43 58.63 237.69 84.7 244.53 84.7"/><polygon class="cls-1" points="188.19 82.67 173.72 114.64 207.85 114.64 188.19 82.67"/><polygon class="cls-1" points="188.19 82.67 156.77 83.71 164.28 53.08 188.19 82.67"/><polygon class="cls-1" points="173.72 114.64 156.77 83.71 188.19 82.67 173.72 114.64"/><polygon class="cls-1" points="70.75 82.82 88.29 115.45 51.92 115.45 70.75 82.82"/><polygon class="cls-1" points="70.75 82.82 102.86 82.67 94.55 52.38 70.75 82.82"/><polygon class="cls-1" points="88.29 115.45 102.86 82.67 70.75 82.82 88.29 115.45"/><polygon class="cls-1" points="88.29 115.45 114.91 115.45 102.86 82.67 88.29 115.45"/><polygon class="cls-1" points="102.86 82.67 128.24 50.01 94.55 52.38 102.86 82.67"/><polygon class="cls-1" points="94.55 52.38 123.64 25.64 128.24 50.01 94.55 52.38"/><polygon class="cls-1" points="164.28 53.08 128.24 50.01 161.06 30.08 164.28 53.08"/><polygon class="cls-1" points="128.24 50.01 136.37 82.82 102.86 82.67 128.24 50.01"/><polygon class="cls-1" points="114.91 115.45 136.37 82.82 102.86 82.67 114.91 115.45"/><polygon class="cls-1" points="136.37 82.82 164.28 53.08 128.24 50.01 136.37 82.82"/><polygon class="cls-1" points="136.37 82.82 156.77 83.71 164.28 53.08 136.37 82.82"/><polygon class="cls-1" points="114.91 115.45 144.2 115.45 136.37 82.82 114.91 115.45"/><polygon class="cls-1" points="144.2 115.45 156.77 83.71 136.37 82.82 144.2 115.45"/><polygon class="cls-1" points="144.2 115.45 173.72 114.64 156.77 83.71 144.2 115.45"/><polygon class="cls-1" points="27.23 54.57 18.11 86.54 35.06 64.45 27.23 54.57"/><polygon class="cls-1" points="21.82 115.45 2.74 114.54 18.11 86.54 21.82 115.45"/><polygon class="cls-1" points="2.74 114.54 11.56 84.75 18.59 86.54 2.74 114.54"/><polygon class="cls-1" points="11.56 84.75 27.23 54.57 18.59 86.54 11.56 84.75"/><polygon class="cls-1" points="56.87 55.76 84.23 26.71 94.55 52.38 56.87 55.76"/><polygon class="cls-1" points="50.42 37.83 76.79 12.53 84.23 26.71 50.42 37.83"/><polyline class="cls-1" points="218.55 55.9 193.87 53.08 188.52 26.71"/></g><g id="hexagonal-door-frame"><polygon class="cls-1" points="212.22 85.42 168.52 43.28 95.52 43.28 51.82 85.42 51.82 115.21 212.22 115.21 212.22 85.42"/><path class="cls-2" d="M171.57,37.82H91.18L43.06,83.3v32.15H219.69V83.3Zm40.65,77.39H51.82V85.42l43.7-42.13h73l43.7,42.13Z"/></g><g id="door-frame"><rect class="cls-2" x="80.1" y="66.21" width="104.98" height="49.35"/></g><rect id="Base" class="cls-3" x="2.5" y="113.17" width="245.6" height="2.88"/><g id="top-right-window"><polygon class="cls-4" points="134.15 63.22 185.08 63.22 167.71 46.83 134.15 46.83 134.15 63.22"/><polygon class="cls-5" points="134.15 63.22 167.71 46.83 134.15 46.83 134.15 63.22"/></g><g id="right-window"><polygon class="cls-4" points="187.51 66.41 187.51 85.63 187.51 111.69 209.51 111.69 209.51 85.63 187.51 66.41"/><polygon class="cls-5" points="187.51 111.66 209.51 85.6 209.51 111.66 187.51 111.66"/></g><g id="top-left-window"><polygon class="cls-4" points="131.04 63.22 80.11 63.22 97.48 46.83 131.04 46.83 131.04 63.22"/><polyline class="cls-5" points="97.48 46.83 131.04 63.22 131.04 46.83"/></g><g id="left-window"><polygon class="cls-4" points="77.02 66.41 77.02 85.63 77.02 111.69 55.01 111.69 55.01 85.63 77.02 66.41"/><polygon class="cls-5" points="55.01 85.63 77.02 111.69 55.01 111.69 55.01 85.63"/></g><g id="door-window-left"><rect class="cls-1" x="81.4" y="67.36" width="25.91" height="45.43"/><rect class="cls-4" x="83.07" y="68.27" width="22.62" height="43.31"/><polygon class="cls-5" points="105.69 68.27 83.07 111.58 105.69 111.58 105.69 68.27"/></g><g id="slide-door-left"><polygon class="cls-1" points="132.59 67.36 132.61 112.8 157.9 112.8 157.9 67.36 132.59 67.36"/><rect id="Door_Widow" data-name="Door Widow" class="cls-4" x="137.04" y="68.33" width="19.44" height="43.23" transform="translate(293.51 179.9) rotate(-180)"/><polygon class="cls-5" points="156.48 68.33 137.04 111.57 137.04 68.33 156.48 68.33"/><rect class="cls-2" x="134.05" y="88.06" width="2.09" height="3.84" rx="0.79"/><rect class="cls-6" x="134.9" y="88.65" width="0.39" height="2.78"/><polygon class="cls-1" points="107.31 67.36 107.31 112.8 132.61 112.8 132.59 67.36 107.31 67.36"/><rect class="cls-2" x="129.14" y="88.06" width="2.09" height="3.84" rx="0.79"/><rect class="cls-6" x="129.99" y="88.65" width="0.39" height="2.78"/><rect id="Door_Widow-2" data-name="Door Widow" class="cls-4" x="108.36" y="68.38" width="19.44" height="43.23"/><polygon class="cls-5" points="108.36 68.38 127.8 111.62 127.8 68.38 108.36 68.38"/></g><g id="door-window-right"><rect class="cls-1" x="157.9" y="67.36" width="26.13" height="45.43"/><rect class="cls-4" x="159.59" y="68.27" width="22.82" height="43.31"/><polygon class="cls-5" points="159.59 68.27 159.59 111.58 182.4 111.58 159.59 68.27"/></g><g id="Ring"><path class="cls-7" d="M162.92,114.43l13.81,4.19c47,12.55,82.08,14.66,86.24,3.47,5.67-15.23-48.28-49.38-120.51-76.27S7.07,9.5,1.4,24.74c-2.59,7,7.49,17.39,25.87,29.76"/></g></g></g></svg>