<?xml version="1.0" encoding="UTF-8"?><svg xmlns="http://www.w3.org/2000/svg" viewBox="0 0 821.26 387.71"><defs><style>.g{fill:#00886e;}.g,.h{stroke:#000;stroke-miterlimit:10;stroke-width:.5px;}.i{fill:#fff;}.j{fill:#d2e1ed;}.k{fill:#e5edf4;}.h{fill:#066954;}.l{fill:#1d1d1b;}</style></defs><g id="a"/><g id="b"><g id="c"><polygon class="g" points="351.54 .43 367.2 29.77 458.69 .43 351.54 .43"/><polygon class="g" points="458.69 .43 494.73 39.71 367.2 29.77 458.69 .43"/><polygon class="g" points="367.2 29.77 405.12 85.45 494.73 39.71 367.2 29.77"/><polygon class="g" points="367.2 29.77 248.46 41.61 351.54 .43 367.2 29.77"/><polygon class="g" points="248.46 41.61 273.32 89.01 367.2 29.77 248.46 41.61"/><polygon class="g" points="273.32 89.01 405.12 85.45 367.2 29.77 273.32 89.01"/><polygon class="g" points="405.12 85.45 420.49 166.91 530.2 100.28 405.12 85.45"/><polygon class="g" points="494.73 39.71 530.2 100.28 405.12 85.45 494.73 39.71"/><polygon class="g" points="494.73 39.71 573.62 27.69 458.69 .43 494.73 39.71"/><polygon class="g" points="494.73 39.71 622.01 89.01 572.55 27.86 494.73 39.71"/><polygon class="g" points="530.2 100.28 622.01 89.01 494.73 39.71 530.2 100.28"/><polygon class="g" points="530.2 100.28 639.91 177.18 622.01 89.01 530.2 100.28"/><polygon class="g" points="530.2 100.28 540.97 177.18 639.91 177.18 530.2 100.28"/><polygon class="g" points="622.01 88.13 722.44 185.75 683.66 91.28 622.01 88.13"/><polygon class="g" points="572.55 27.86 683.66 92.16 622.01 89.01 572.55 27.86"/><polygon class="g" points="639.91 177.18 725.43 276.12 722.44 186.63 639.91 177.18"/><polygon class="g" points="273.32 89.01 307.83 174.86 405.12 85.45 273.32 89.01"/><polygon class="g" points="273.32 89.01 181.84 186.13 160.29 126.18 273.32 89.01"/><polygon class="g" points="248.46 41.61 160.29 126.18 151.01 103.6 248.46 41.61"/><polygon class="g" points="151.01 103.6 82.73 182.15 160.29 126.18 151.01 103.6"/><polygon class="g" points="82.73 182.15 108.92 215.22 160.29 126.18 82.73 182.15"/><polygon class="g" points="181.84 186.13 108.92 215.22 160.29 126.18 181.84 186.13"/><polygon class="g" points="181.84 186.13 228.24 276.62 307.83 174.86 181.84 186.13"/><polygon class="g" points="181.84 186.13 121.51 278.61 228.24 276.62 181.84 186.13"/><polygon class="g" points="108.92 215.22 121.51 278.61 181.84 186.13 108.92 215.22"/><polygon class="g" points="121.51 278.61 165.31 385.72 228.24 276.62 121.51 278.61"/><polygon class="g" points="121.51 278.61 64.67 385.72 165.31 385.72 121.51 278.61"/><polygon class="g" points="108.92 215.22 52.24 289.05 121.51 278.61 108.92 215.22"/><polygon class="g" points="52.24 289.05 64.67 385.72 121.51 278.61 52.24 289.05"/><polygon class="g" points="639.91 177.18 620.93 276.12 540.97 177.18 639.91 177.18"/><polygon class="g" points="620.93 276.12 725.43 276.12 639.91 177.18 620.93 276.12"/><path class="g" d="M620.93,276.12s66.38,107.56,65.72,106.89,38.78-106.89,38.78-106.89h-104.5Z"/><polygon class="g" points="725.43 276.12 777.13 384.67 686.65 383.02 725.43 276.12"/><polygon class="g" points="777.13 384.67 786.42 282.92 725.43 276.12 777.13 384.67"/><polygon class="g" points="786.42 282.92 818.9 383.02 777.13 384.67 786.42 282.92"/><polygon class="g" points="818.9 383.02 809.29 282.92 786.42 282.92 818.9 383.02"/><polygon class="g" points="683.66 92.16 768.85 195.74 722.44 186.63 683.66 92.16"/><polygon class="g" points="725.43 276.12 768.85 195.74 722.44 186.63 725.43 276.12"/><polygon class="g" points="786.42 282.92 768.85 195.74 725.43 276.12 786.42 282.92"/><polygon class="g" points="809.29 282.92 768.85 195.74 786.42 282.92 809.29 282.92"/><polygon class="g" points="620.93 276.12 572.55 383.02 686.65 383.02 620.93 276.12"/><polygon class="g" points="620.93 276.12 515.86 279.6 540.97 177.18 620.93 276.12"/><polygon class="g" points="572.55 383.02 515.86 279.6 620.93 276.12 572.55 383.02"/><polygon class="g" points="228.24 276.62 286.91 385.72 165.31 385.72 228.24 276.62"/><polygon class="g" points="228.24 276.62 335.63 276.12 307.83 174.86 228.24 276.62"/><polygon class="g" points="286.91 385.72 335.63 276.12 228.24 276.62 286.91 385.72"/><polygon class="g" points="286.91 385.72 375.91 385.72 335.63 276.12 286.91 385.72"/><polygon class="g" points="335.63 276.12 420.49 166.91 307.83 174.86 335.63 276.12"/><polygon class="g" points="307.83 174.86 405.12 85.45 420.49 166.91 307.83 174.86"/><polygon class="g" points="540.97 177.18 420.49 166.91 530.2 100.28 540.97 177.18"/><polygon class="g" points="420.49 166.91 447.67 276.62 335.63 276.12 420.49 166.91"/><polygon class="g" points="375.91 385.72 447.67 276.62 335.63 276.12 375.91 385.72"/><polygon class="g" points="447.67 276.62 540.97 177.18 420.49 166.91 447.67 276.62"/><polygon class="g" points="447.67 276.62 515.86 279.6 540.97 177.18 447.67 276.62"/><polygon class="g" points="375.91 385.72 473.84 385.72 447.67 276.62 375.91 385.72"/><polygon class="g" points="473.84 385.72 515.86 279.6 447.67 276.62 473.84 385.72"/><polygon class="g" points="473.84 385.72 572.55 383.02 515.86 279.6 473.84 385.72"/><polygon class="g" points="82.73 182.15 52.24 289.05 108.92 215.22 82.73 182.15"/><polygon class="g" points="64.67 385.72 .86 382.68 52.24 289.05 64.67 385.72"/><polygon class="g" points=".86 382.68 30.36 283.08 53.87 289.05 .86 382.68"/><polygon class="g" points="30.36 283.08 82.73 182.15 53.87 289.05 30.36 283.08"/><polygon class="g" points="181.84 186.13 273.32 89.01 307.83 174.86 181.84 186.13"/><polygon class="g" points="160.29 126.18 248.46 41.61 273.32 89.01 160.29 126.18"/><polyline class="g" points="722.44 186.63 639.91 177.18 622.01 89.01"/><polygon class="g" points="701.26 285.3 555.16 144.44 311.06 144.44 164.96 285.3 164.96 384.91 701.26 384.91 701.26 285.3"/><path class="h" d="M565.37,126.18H296.57l-160.89,152.03v107.5H726.26v-107.5l-160.89-152.03Zm135.89,258.74H164.96v-99.61l146.1-140.87h244.09l146.1,140.87v99.61Z"/><rect class="h" x="259.52" y="221.08" width="351.01" height="164.99"/><rect id="d" class="i" x=".08" y="378.09" width="821.18" height="9.62"/><polygon class="j" points="440.25 211.07 610.52 211.07 552.45 156.3 440.25 156.3 440.25 211.07"/><polygon class="k" points="440.25 211.07 552.45 156.3 440.25 156.3 440.25 211.07"/><polygon class="j" points="618.64 221.76 618.64 286 618.64 373.13 692.22 373.13 692.22 286 618.64 221.76"/><polygon class="k" points="618.64 373.06 692.22 285.93 692.22 373.06 618.64 373.06"/><polygon class="j" points="429.83 211.07 259.56 211.07 317.63 156.3 429.83 156.3 429.83 211.07"/><polyline class="k" points="317.63 156.3 429.83 211.07 429.83 156.3"/><polygon class="j" points="249.23 221.76 249.23 286 249.23 373.13 175.65 373.13 175.65 286 249.23 221.76"/><polygon class="k" points="175.65 286 249.23 373.13 175.65 373.13 175.65 286"/><rect class="g" x="263.85" y="224.94" width="86.62" height="151.91"/><rect class="j" x="269.45" y="227.98" width="75.63" height="144.8"/><polygon class="k" points="345.08 227.98 269.45 372.78 345.08 372.78 345.08 227.98"/><g><polygon class="g" points="435.04 224.94 435.08 376.86 519.66 376.86 519.66 224.94 435.04 224.94"/><rect id="e" class="j" x="449.89" y="228.18" width="65" height="144.56" transform="translate(964.78 600.92) rotate(-180)"/><polygon class="k" points="514.89 228.18 449.89 372.74 449.89 228.18 514.89 228.18"/><rect class="h" x="439.9" y="294.15" width="6.99" height="12.85" rx=".79" ry=".79"/><rect class="l" x="442.74" y="296.12" width="1.31" height="9.3"/></g><g><polygon class="g" points="350.48 224.94 350.48 376.86 435.08 376.86 435.04 224.94 350.48 224.94"/><rect class="h" x="423.49" y="294.15" width="6.99" height="12.85" rx=".79" ry=".79"/><rect class="l" x="426.34" y="296.12" width="1.31" height="9.3"/><rect id="f" class="j" x="354.02" y="228.34" width="65" height="144.56"/><polygon class="k" points="354.02 228.34 419.02 372.9 419.02 228.34 354.02 228.34"/></g><rect class="g" x="519.65" y="224.94" width="87.37" height="151.91"/><rect class="j" x="525.29" y="227.98" width="76.29" height="144.8"/><polygon class="k" points="525.29 227.98 525.29 372.78 601.58 372.78 525.29 227.98"/></g></g></svg>